<?xml version="1.0" encoding="UTF-8"?>
<svg version="1.1" xmlns="http://www.w3.org/2000/svg" width="640" height="641">
<path d="M0 0 C211.2 0 422.4 0 640 0 C640 211.53 640 423.06 640 641 C428.8 641 217.6 641 0 641 C0 429.47 0 217.94 0 0 Z " fill="#FEFEFE" transform="translate(0,0)"/>
<path d="M0 0 C1.4540625 0.5259375 1.4540625 0.5259375 2.9375 1.0625 C3.618125 1.371875 4.29875 1.68125 5 2 C5.495 3.485 5.495 3.485 6 5 C11.94 5 17.88 5 24 5 C26.17922032 9.35844065 25.6928661 15.67164764 24.328125 20.2578125 C23.78438453 21.5658674 23.2388676 22.87318554 22.69140625 24.1796875 C21.46716465 27.40283206 21.47113645 29.5917682 22 33 C24.41606795 37.97709998 27.49145509 42.37994387 30.9375 46.6875 C33.55150514 50.88575068 32.81743159 52.21705206 32 57 C31.89685675 58.43092628 31.81551465 59.86355963 31.75390625 61.296875 C31.70459961 62.39322266 31.70459961 62.39322266 31.65429688 63.51171875 C31.5924655 65.01935191 31.53526544 66.52718131 31.48242188 68.03515625 C31.30405851 71.8245364 31.14856204 73.77715694 29 77 C29.28828299 82.58897021 32.90618521 86.00887206 36.28515625 90.18359375 C38.27484526 93.45139734 38.4177515 95.24023654 38 99 C37.67 99.66 37.34 100.32 37 101 C36.34 101 35.68 101 35 101 C34.73316406 101.58652344 34.46632813 102.17304688 34.19140625 102.77734375 C32.62827881 105.69347331 30.55686485 107.88256157 28.33984375 110.31640625 C26.78521084 112.07218444 26.78521084 112.07218444 26 115 C26.66 115 27.32 115 28 115 C28.268125 114.2575 28.53625 113.515 28.8125 112.75 C29.95276751 110.10938051 31.09380306 108.14447156 33 106 C33.66 106 34.32 106 35 106 C35 105.34 35 104.68 35 104 C36.87109375 102.5625 36.87109375 102.5625 39.4375 101 C40.26121094 100.484375 41.08492187 99.96875 41.93359375 99.4375 C49.98132036 95.66480778 58.18182639 95.68951175 66.9375 95.75 C68.05318359 95.74226563 69.16886719 95.73453125 70.31835938 95.7265625 C86.05244617 95.76343206 97.95117332 99.61328259 109.5625 110.375 C110.7690625 111.674375 110.7690625 111.674375 112 113 C112.5671875 113.58523438 113.134375 114.17046875 113.71875 114.7734375 C123.62204154 125.39010174 124.55670552 136.52350769 124.34375 150.48046875 C123.72456791 165.43113619 116.87105669 180.70560054 106 191 C77.1805777 217.06184155 31.16528754 222.43439946 -6 222 C-6 221.34 -6 220.68 -6 220 C-5.12601563 219.72905518 -5.12601563 219.72905518 -4.234375 219.45263672 C17.49656159 213.23591088 17.49656159 213.23591088 38 204 C38.33 203.01 38.66 202.02 39 201 C37.4221875 200.6596875 37.4221875 200.6596875 35.8125 200.3125 C31.75185448 199.43667449 29.64311444 197.11828108 27 194 C25.453125 190.546875 25.453125 190.546875 24.25 186.75 C24.04028564 186.0912085 23.83057129 185.43241699 23.61450195 184.75366211 C22.09904727 179.80980174 21.27102974 175.14956499 21 170 C20.01 169.67 19.02 169.34 18 169 C17.11770546 163.26508549 19.49896975 160.23061188 22.6875 155.7578125 C23.120625 155.17773438 23.55375 154.59765625 24 154 C22.96875 154.33 21.9375 154.66 20.875 155 C9.6483494 157.70852759 -0.82355367 155.6947031 -11.7734375 152.97265625 C-19.11708849 151.20536011 -26.23165087 150.83959176 -33.75 150.875 C-34.58660156 150.87113281 -35.42320312 150.86726562 -36.28515625 150.86328125 C-37.49751953 150.86521484 -37.49751953 150.86521484 -38.734375 150.8671875 C-39.45850586 150.86831543 -40.18263672 150.86944336 -40.92871094 150.87060547 C-43.06053803 151.00378184 -44.94890051 151.41818107 -47 152 C-46.28818117 161.31500853 -45.49771103 168.86802216 -39 176 C-38.39542969 176.67289063 -37.79085937 177.34578125 -37.16796875 178.0390625 C-26.25446821 188.84822747 -10.11503144 193.80151236 4 199 C5.18207031 199.43699219 6.36414063 199.87398437 7.58203125 200.32421875 C10.05087978 201.22745602 12.52231725 202.12135039 15 203 C15 203.99 15 204.98 15 206 C-7.15058507 206.55841811 -28.70741848 203.48674847 -45.31982422 187.77172852 C-56.0309135 177.25253172 -62.72558776 164.00263004 -70.09375 151.08203125 C-73.74911528 144.72797831 -77.67308754 139.05073488 -82.5 133.5625 C-86.22126322 129.27721369 -89.67885268 124.94473771 -92.6875 120.125 C-93.33074219 119.11695313 -93.97398437 118.10890625 -94.63671875 117.0703125 C-99.33951721 106.23088197 -95.46430736 89.69427489 -94.3125 78.1875 C-94.22418915 77.29147064 -94.1358783 76.39544128 -94.04489136 75.47225952 C-88.65384777 21.43376605 -88.65384777 21.43376605 -74 5 C-66.24492853 -1.32561707 -57.7269119 -3.49893335 -48 -5 C-46.72125 -5.226875 -45.4425 -5.45375 -44.125 -5.6875 C-29.98090359 -7.13200346 -12.43449476 -7.50761948 0 0 Z " fill="#56809E" transform="translate(264,233)"/>
<path d="M0 0 C3.00806161 0.23747855 4.52669236 0.47017801 6.5703125 2.7578125 C8.05337319 5.08370549 8.78187783 7.03301269 9.5 9.6875 C10.50266959 13.34122104 10.50266959 13.34122104 11.7157135 16.92831421 C13.74105669 22.45992338 14.51292591 27.40907979 14.65234375 33.27734375 C14.6935006 34.55442955 14.6935006 34.55442955 14.73548889 35.85731506 C14.78846016 37.64450947 14.83430807 39.43192819 14.87329102 41.21948242 C14.93728445 43.9283758 15.03869387 46.63417536 15.14257812 49.34179688 C15.46366442 59.94643823 15.03902477 67.94146284 9 77 C9.30840599 79.15274948 9.30840599 79.15274948 10 81 C10.66 81 11.32 81 12 81 C12 81.66 12 82.32 12 83 C-16.90219438 105.66110356 -59.6323094 110.41338859 -95 110 C-95 109.34 -95 108.68 -95 108 C-94.12601562 107.72905518 -94.12601562 107.72905518 -93.234375 107.45263672 C-71.50343841 101.23591088 -71.50343841 101.23591088 -51 92 C-50.505 90.515 -50.505 90.515 -50 89 C-51.051875 88.773125 -52.10375 88.54625 -53.1875 88.3125 C-57.17177382 87.18914491 -59.31180498 85.16258237 -62 82 C-63.35439668 79.29120665 -63.06501451 76.99066732 -63 74 C-60 75 -60 75 -58.8125 77.0625 C-58.544375 77.701875 -58.27625 78.34125 -58 79 C-55.5857932 76.5857932 -55.64597228 75.6763536 -55.33203125 72.3515625 C-55.19958008 70.96710938 -55.19958008 70.96710938 -55.06445312 69.5546875 C-54.98130859 68.58789062 -54.89816406 67.62109375 -54.8125 66.625 C-54.71775391 65.6659375 -54.62300781 64.706875 -54.52539062 63.71875 C-54.13925988 59.48604964 -53.91245622 56.12208843 -55 52 C-54.44140625 49.859375 -54.44140625 49.859375 -53.5625 47.75 C-53.13130859 46.69039063 -53.13130859 46.69039063 -52.69140625 45.609375 C-52.46324219 45.07828125 -52.23507812 44.5471875 -52 44 C-51.01 44.33 -50.02 44.66 -49 45 C-49.02094727 43.90010742 -49.04189453 42.80021484 -49.06347656 41.66699219 C-49.13593635 37.58200119 -49.18182115 33.49706686 -49.21972656 29.41162109 C-49.2398285 27.64427128 -49.26711472 25.87698787 -49.30175781 24.10986328 C-49.35034009 21.56786715 -49.37298226 19.02675104 -49.390625 16.484375 C-49.41127014 15.69569031 -49.43191528 14.90700562 -49.45318604 14.09442139 C-49.45466179 10.4775427 -49.34130054 8.44342749 -47.10058594 5.53222656 C-42.57791982 2.23326648 -38.45720563 2.36696415 -33 3 C-26.57444212 4.79561329 -20.05867437 7.2736277 -15.98828125 12.796875 C-12.3101603 20.99632249 -13.95695951 30.57456858 -16 39 C-15.58041016 37.94425781 -15.58041016 37.94425781 -15.15234375 36.8671875 C-12.8059204 31.08789398 -10.27301999 25.52531199 -7.375 20 C-4.5570405 14.49272697 -2.7698317 9.27697847 -1.5078125 3.23046875 C-1 1 -1 1 0 0 Z " fill="#57809E" transform="translate(353,345)"/>
<path d="M0 0 C1.4540625 0.5259375 1.4540625 0.5259375 2.9375 1.0625 C3.618125 1.371875 4.29875 1.68125 5 2 C5.495 3.485 5.495 3.485 6 5 C11.94 5 17.88 5 24 5 C26.17922032 9.35844065 25.6928661 15.67164764 24.328125 20.2578125 C23.78564775 21.56282852 23.23640409 22.86505711 22.6796875 24.1640625 C21.02115589 28.6440042 21.63995634 32.17489995 23.5 36.4375 C23.995 37.283125 24.49 38.12875 25 39 C24.360625 38.835 23.72125 38.67 23.0625 38.5 C21.19173179 37.96073333 21.19173179 37.96073333 20 38 C19.38125 38.495 18.7625 38.99 18.125 39.5 C16 41 16 41 13 41 C13.00523682 41.57741943 13.01047363 42.15483887 13.01586914 42.74975586 C13.11337128 55.21151607 12.92314407 67.57052446 12 80 C11.67 80 11.34 80 11 80 C10.08137695 76.13775023 9.91981599 72.63159965 10.0078125 68.66796875 C10.03294922 66.85135742 10.03294922 66.85135742 10.05859375 64.99804688 C10.10266302 62.46924868 10.15467332 59.9405757 10.21484375 57.41210938 C10.33439065 47.16911323 8.73815778 39.9173354 2 32 C-4.28229614 26.12301329 -11.92519102 26.76481139 -20 27 C-21.44154827 31.27269711 -22.80507356 35.56324029 -24.125 39.875 C-24.47820312 41.02742188 -24.83140625 42.17984375 -25.1953125 43.3671875 C-25.46085937 44.23601562 -25.72640625 45.10484375 -26 46 C-27.32 45.67 -28.64 45.34 -30 45 C-30.495 43.02 -30.495 43.02 -31 41 C-29.68 41.33 -28.36 41.66 -27 42 C-27 41.34 -27 40.68 -27 40 C-29.64 40 -32.28 40 -35 40 C-35.226875 40.639375 -35.45375 41.27875 -35.6875 41.9375 C-37 44 -37 44 -39.25 44.8125 C-42.33061724 45.02254208 -44.98537143 44.63096877 -48 44 C-45.36095629 42.58622659 -42.92879371 41.62759865 -40 41 C-39.30742028 35.55830221 -39.70293987 32.79192169 -43.0625 28.375 C-47.60667784 23.05968895 -52.17849174 18.10564337 -59 16 C-62.58430945 15.75917126 -62.58430945 15.75917126 -66.3125 15.875 C-67.56675781 15.89304688 -68.82101563 15.91109375 -70.11328125 15.9296875 C-71.06589844 15.95289063 -72.01851562 15.97609375 -73 16 C-75.49522176 8.36755697 -75.49522176 8.36755697 -74 5 C-66.3150302 -1.25833793 -57.60115491 -3.51834029 -48 -5 C-46.72125 -5.226875 -45.4425 -5.45375 -44.125 -5.6875 C-29.98090359 -7.13200346 -12.43449476 -7.50761948 0 0 Z " fill="#56809E" transform="translate(264,233)"/>
<path d="M0 0 C8.51711659 2.69708692 12.93351546 7.18653211 17.01953125 14.81640625 C18.86067237 18.91679624 19.10500385 22.39802871 19.02734375 26.8828125 C19.00679932 28.62208008 19.00679932 28.62208008 18.98583984 30.39648438 C18.9698877 31.62689453 18.95393555 32.85730469 18.9375 34.125 C18.88175336 42.62909525 18.91960581 51.04255946 19.875 59.5 C19.95355225 60.21559082 20.03210449 60.93118164 20.11303711 61.66845703 C20.56300299 65.18778669 21.34127134 67.88732399 23 71 C23.57054368 74.79374497 23.65465012 77.97533025 21.5625 81.25 C21.046875 81.8275 20.53125 82.405 20 83 C18.47966053 87.51936526 18.62811772 92.38245178 18.37890625 97.1015625 C18 100 18 100 16 102 C12.70285207 101.67028521 11.3773161 101.3773161 9 99 C8.7685729 96.22588037 8.66921024 93.58739951 8.6875 90.8125 C8.68878906 90.01473145 8.69007813 89.21696289 8.69140625 88.39501953 C8.8138495 80.67956409 10.14684845 73.47879017 12 66 C7.71 66 3.42 66 -1 66 C-1.33 68.31 -1.66 70.62 -2 73 C-2.66 73 -3.32 73 -4 73 C-4.37125 74.1446875 -4.37125 74.1446875 -4.75 75.3125 C-6.16192497 78.34813868 -7.05377656 79.44504874 -10 81 C-13.25 81.1875 -13.25 81.1875 -16 81 C-16.33 80.01 -16.66 79.02 -17 78 C-17.66 78 -18.32 78 -19 78 C-20.38731487 71.04834612 -19.74756 66.50589788 -17.046875 60.00390625 C-15.48178156 55.51302247 -15.06824733 50.97587542 -14.58984375 46.26171875 C-13.94958745 42.72122861 -12.67847593 40.16208922 -11 37 C-10.1655408 33.6288837 -10.1655408 33.6288837 -11 30 C-12.68300425 27.60527754 -14.48174019 25.45724523 -16.46875 23.30859375 C-18.48283276 20.27205572 -18.41989712 18.59395819 -18 15 C-17.01171875 11.89453125 -17.01171875 11.89453125 -15.6875 8.8125 C-15.04361328 7.27529297 -15.04361328 7.27529297 -14.38671875 5.70703125 C-10.9507087 -1.00044753 -7.06472685 -0.78616625 0 0 Z " fill="#F3F8FA" transform="translate(256,259)"/>
<path d="M0 0 C7.42178967 3.35606824 13.96829608 10.21332269 17.7109375 17.38671875 C18.15295691 20.60714585 18.31298005 22.41676131 16.5859375 25.19921875 C14.04417535 26.80900144 11.6711267 27.05780884 8.7109375 27.38671875 C8.50791016 26.37351562 8.50791016 26.37351562 8.30078125 25.33984375 C7.15349299 20.14176133 7.15349299 20.14176133 4.1640625 15.90234375 C2.13777344 14.68381103 2.13777344 14.68381103 -1.2890625 13.38671875 C-2.2996875 12.97421875 -3.3103125 12.56171875 -4.3515625 12.13671875 C-7.44649466 11.34652331 -10.10821401 11.23524977 -13.2890625 11.38671875 C-15.20600598 15.22060571 -14.98599567 19.22778423 -14.2890625 23.38671875 C-11.35080329 29.59430864 -7.3367293 34.74832223 -2.2890625 39.38671875 C-1.6909375 40.17046875 -1.0928125 40.95421875 -0.4765625 41.76171875 C1.3815526 43.99145687 3.14563296 45.69995014 5.3359375 47.57421875 C22.54182653 62.46021263 22.54182653 62.46021263 24.04296875 73.921875 C24.33875413 81.00976904 22.66130471 87.13610673 19.0234375 93.19921875 C14.54271751 97.43773766 10.04912417 99.6092972 3.8359375 99.82421875 C-0.58680368 99.64972517 -4.2842351 98.54019022 -8.4375 97.08984375 C-11.36660361 96.36759902 -14.07680667 96.25522987 -17.08496094 96.2277832 C-25.13891015 96.11370184 -25.13891015 96.11370184 -28.359375 94.078125 C-32.82101787 88.15051375 -32.08048236 79.40952867 -31.2890625 72.38671875 C-29.2890625 69.38671875 -29.2890625 69.38671875 -26.9140625 68.88671875 C-23.21648473 69.59101928 -22.36861028 71.33671534 -20.2890625 74.38671875 C-19.4228125 75.43859375 -19.4228125 75.43859375 -18.5390625 76.51171875 C-17.2890625 78.38671875 -17.2890625 78.38671875 -17.2890625 81.38671875 C-15.93361328 81.51626953 -15.93361328 81.51626953 -14.55078125 81.6484375 C-13.37128906 81.78894531 -12.19179687 81.92945313 -10.9765625 82.07421875 C-9.80480469 82.20183594 -8.63304687 82.32945312 -7.42578125 82.4609375 C-4.2890625 83.38671875 -4.2890625 83.38671875 -2.37109375 85.84375 C-1.2890625 88.38671875 -1.2890625 88.38671875 -1.2890625 90.38671875 C0.15190336 89.96077287 1.58862462 89.52045242 3.0234375 89.07421875 C3.82394531 88.83058594 4.62445313 88.58695312 5.44921875 88.3359375 C7.8752069 87.31777667 9.09385114 86.44663799 10.7109375 84.38671875 C12.46310006 78.14463962 11.46723755 74.66432866 8.33984375 69.07421875 C7.80230469 68.18734375 7.26476562 67.30046875 6.7109375 66.38671875 C6.16308594 65.45859375 5.61523438 64.53046875 5.05078125 63.57421875 C-1.05177508 53.83085918 -8.91244721 45.75563115 -17.015625 37.6640625 C-21.97536519 32.69580042 -25.6288283 28.4306532 -26.7890625 21.32421875 C-25.79160236 13.46922018 -21.45973317 6.29305394 -16.2890625 0.38671875 C-11.6422352 -1.9366949 -4.91364089 -1.31645328 0 0 Z " fill="#F3F8FA" transform="translate(207.2890625,248.61328125)"/>
<path d="M0 0 C3.00806161 0.23747855 4.52669236 0.47017801 6.5703125 2.7578125 C8.05337319 5.08370549 8.78187783 7.03301269 9.5 9.6875 C10.50266959 13.34122104 10.50266959 13.34122104 11.7157135 16.92831421 C13.74105669 22.45992338 14.51292591 27.40907979 14.65234375 33.27734375 C14.67978165 34.12873428 14.70721954 34.98012482 14.73548889 35.85731506 C14.78846016 37.64450947 14.83430807 39.43192819 14.87329102 41.21948242 C14.93728445 43.9283758 15.03869387 46.63417536 15.14257812 49.34179688 C15.46287107 59.90811739 15.35718188 68.38152863 8.625 77.0625 C5.66871683 79.24451853 3.63326445 79.74651643 0 80 C0.42469103 77.11210097 0.97225037 75.04826023 2.4375 72.5 C4.53884846 67.79297944 5.05697594 63.21053832 5.6875 58.125 C5.81705078 57.15046875 5.94660156 56.1759375 6.08007812 55.171875 C6.39634096 52.7823336 6.70267813 50.39195923 7 48 C2.94662013 48.24067781 2.94662013 48.24067781 -1 49 C-2.47018214 51.87060982 -2.47018214 51.87060982 -3.08984375 54.01171875 C-4.87294042 57.90698142 -8.54187117 60.58444929 -12 63 C-12.66 63 -13.32 63 -14 63 C-15.19568304 44.64166658 -14.89865959 31.16793376 -5.11914062 15.04345703 C-3.03041186 11.22961327 -2.21777889 7.27526939 -1.40234375 3.01953125 C-1 1 -1 1 0 0 Z " fill="#F2F8F9" transform="translate(353,345)"/>
<path d="M0 0 C11.12163618 4.38541649 11.12163618 4.38541649 13.84765625 9.05859375 C14.58939984 14.74776709 14.4255163 20.03608358 12.84765625 25.55859375 C9.3065234 29.98500982 4.46993545 33.06331269 -1.15234375 34.05859375 C-2.90121356 34.12483882 -4.65237123 34.1441197 -6.40234375 34.12109375 C-7.294375 34.11207031 -8.18640625 34.10304688 -9.10546875 34.09375 C-9.7809375 34.08214844 -10.45640625 34.07054687 -11.15234375 34.05859375 C-11.11753906 35.06535156 -11.08273437 36.07210937 -11.046875 37.109375 C-10.78680974 48.38022409 -12.11051676 58.98654385 -14.15234375 70.05859375 C-17.12234375 70.55359375 -17.12234375 70.55359375 -20.15234375 71.05859375 C-21.92147165 65.73014902 -22.46204755 61.09332496 -22.40234375 55.49609375 C-22.41007812 54.76712891 -22.4178125 54.03816406 -22.42578125 53.28710938 C-22.42320312 52.57103516 -22.420625 51.85496094 -22.41796875 51.1171875 C-22.41571289 50.48095459 -22.41345703 49.84472168 -22.41113281 49.18920898 C-22.15234375 47.05859375 -22.15234375 47.05859375 -21.15283203 44.33862305 C-19.92003757 40.29699455 -19.8734428 36.71607169 -19.87890625 32.51953125 C-19.85863214 30.87108678 -19.83778166 29.22264931 -19.81640625 27.57421875 C-19.79375317 24.99570748 -19.77730735 22.41747366 -19.77148438 19.83886719 C-19.76197173 17.33608976 -19.72823321 14.83453486 -19.69140625 12.33203125 C-19.69645172 11.56216888 -19.70149719 10.79230652 -19.70669556 9.99911499 C-19.64123901 6.44035656 -19.46026723 4.45458539 -17.24365234 1.60400391 C-11.97912797 -2.28631121 -6.11308196 -1.82559201 0 0 Z " fill="#F2F7FA" transform="translate(323.15234375,348.94140625)"/>
<path d="M0 0 C2.99619647 0.23654183 4.52374124 0.47029575 6.56640625 2.7421875 C8.08873551 5.13975238 8.8250022 7.20243674 9.5625 9.9375 C10.31967119 12.67773858 11.04855148 15.10438569 12.25 17.6875 C13.35175088 21.08456522 12.78723418 23.54828092 12 27 C11.525625 27.928125 11.05125 28.85625 10.5625 29.8125 C8.4767503 34.0674294 7.78062808 38.35296697 7 43 C5.72125 43.061875 4.4425 43.12375 3.125 43.1875 C2.04605469 43.23970703 2.04605469 43.23970703 0.9453125 43.29296875 C0.30335938 43.19628906 -0.33859375 43.09960938 -1 43 C-1.66 42.01 -2.32 41.02 -3 40 C-5.05925139 39.27617533 -5.05925139 39.27617533 -7 39 C-6.773125 37.906875 -6.54625 36.81375 -6.3125 35.6875 C-5.59853617 32.09468727 -5.59853617 32.09468727 -7.4375 30.0625 C-8.2109375 29.5365625 -8.2109375 29.5365625 -9 29 C-9.66 29.99 -10.32 30.98 -11 32 C-12 29 -12 29 -10.453125 25.62890625 C-9.72478785 24.27018363 -8.99003341 22.91488778 -8.25 21.5625 C-5.07004711 15.53273827 -2.83942676 9.8853913 -1.47265625 3.16015625 C-1 1 -1 1 0 0 Z " fill="#EEF5F8" transform="translate(353,345)"/>
<path d="M0 0 C7.75 0.75 7.75 0.75 10 3 C10.50244141 5.08447266 10.50244141 5.08447266 10.8515625 7.6640625 C10.98071045 8.61466553 11.1098584 9.56526855 11.24291992 10.54467773 C11.36900635 11.56118408 11.49509277 12.57769043 11.625 13.625 C11.82283081 15.17006226 11.82283081 15.17006226 12.0246582 16.74633789 C13.04313 25.21473007 13.33390052 33.47935334 13 42 C9.37 42 5.74 42 2 42 C1.7090697 38.10842038 1.42459075 34.21642218 1.14550781 30.32397461 C1.00388007 28.36613744 0.8574759 26.40864762 0.7109375 24.45117188 C0.12904972 16.28396131 -0.12485053 8.18724709 0 0 Z " fill="#59809E" transform="translate(255,275)"/>
<path d="M0 0 C4.84554473 0.06202297 7.72902906 1.54196757 11.3828125 4.66015625 C12.9375 6.4375 12.9375 6.4375 14.3125 9.9375 C13.85657966 14.19275654 12.65249117 15.48262938 9.578125 18.2734375 C5.89266893 20.88835633 2.28454551 20.51951973 -2.0625 20.4375 C-2.0625 19.4475 -2.0625 18.4575 -2.0625 17.4375 C-3.0525 17.1075 -4.0425 16.7775 -5.0625 16.4375 C-5.08935095 13.95826199 -5.10926547 11.4793116 -5.125 9 C-5.13756836 7.93942383 -5.13756836 7.93942383 -5.15039062 6.85742188 C-5.15903588 5.05056441 -5.11470011 3.24362397 -5.0625 1.4375 C-3.53256031 -0.09243969 -2.12951177 0.1205384 0 0 Z " fill="#60849F" transform="translate(315.0625,354.5625)"/>
<path d="M0 0 C0.66 0 1.32 0 2 0 C1.50216787 5.67528623 0.29591971 9.73851732 -2 15 C-2.4054103 17.32189536 -2.76072994 19.65515344 -3 22 C0.21453485 22.21637157 2.93764893 22.04502886 6 21 C8.75951432 18.17309013 10.5107394 14.90005335 12.375 11.4375 C13.37357293 9.66014183 14.38094327 7.88768806 15.3984375 6.12109375 C16.04304932 4.93664673 16.04304932 4.93664673 16.70068359 3.72827148 C17.12945801 3.15794189 17.55823242 2.5876123 18 2 C18.99 2 19.98 2 21 2 C21.02903577 5.10414702 21.0468107 8.20825909 21.0625 11.3125 C21.07087891 12.19357422 21.07925781 13.07464844 21.08789062 13.98242188 C21.09272461 15.25375977 21.09272461 15.25375977 21.09765625 16.55078125 C21.10551147 17.72120972 21.10551147 17.72120972 21.11352539 18.9152832 C21 21 21 21 20 24 C19.01 23.67 18.02 23.34 17 23 C17 21.02 17 19.04 17 17 C15.02 17 13.04 17 11 17 C10.566875 18.11375 10.566875 18.11375 10.125 19.25 C9.17697356 21.56739797 8.15154089 23.77917115 7 26 C6.34 26 5.68 26 5 26 C5 25.34 5 24.68 5 24 C4.06027344 24.12568359 4.06027344 24.12568359 3.1015625 24.25390625 C1.87566406 24.40666016 1.87566406 24.40666016 0.625 24.5625 C-0.18710937 24.66691406 -0.99921875 24.77132813 -1.8359375 24.87890625 C-4 25 -4 25 -6 24 C-6.83436208 15.82325159 -3.89382394 8.52394224 -1 1 C-0.67 0.67 -0.34 0.34 0 0 Z " fill="#5A5A5A" transform="translate(418,262)"/>
<path d="M0 0 C4.27507177 1.52681135 6.01153603 3.99620092 8 8 C8.32456829 11.33615994 8.06594646 14.5450246 7.75 17.875 C7.68425781 18.75414062 7.61851562 19.63328125 7.55078125 20.5390625 C7.38679654 22.69429011 7.19607345 24.84745447 7 27 C-0.75 27.1875 -0.75 27.1875 -3 25.5 C-6.31673078 17.20817304 -2.37245745 8.13413983 0 0 Z " fill="#587F9C" transform="translate(353,361)"/>
<path d="M0 0 C0.66 0 1.32 0 2 0 C2.33 0.99 2.66 1.98 3 3 C3.99 3.33 4.98 3.66 6 4 C6.6875 7.3125 6.6875 7.3125 7 11 C6 12 5 13 4 14 C4.185625 15.11375 4.37125 16.2275 4.5625 17.375 C5 21 5 21 3.4375 23.875 C0.57829882 26.36763692 -1.26425478 26.7452901 -5 27 C-5.61246804 17.71090138 -4.11395196 9.76658766 -1 1 C-0.67 0.67 -0.34 0.34 0 0 Z " fill="#5E5E5E" transform="translate(387,261)"/>
<path d="M0 0 C1.32 0 2.64 0 4 0 C4 9.9 4 19.8 4 30 C3.34 30 2.68 30 2 30 C0.67770811 27.35541621 0.90322806 25.32238699 0.9375 22.375 C0.94652344 21.37210937 0.95554687 20.36921875 0.96484375 19.3359375 C0.97644531 18.56507813 0.98804688 17.79421875 1 17 C-3.11535532 16.99059694 -3.11535532 16.99059694 -7 18 C-8.69554214 19.99005318 -9.8198616 21.95280158 -10.9921875 24.28515625 C-11.32476562 24.85105469 -11.65734375 25.41695313 -12 26 C-12.66 26 -13.32 26 -14 26 C-13.3221228 21.97261193 -11.28692285 18.71945337 -9.25 15.25 C-8.88874023 14.63108887 -8.52748047 14.01217773 -8.15527344 13.37451172 C-7.43521848 12.14449826 -6.71293929 10.91578377 -5.98828125 9.68847656 C-5.13951501 8.23836113 -4.31708513 6.77288735 -3.5 5.3046875 C-2.25 3.125 -2.25 3.125 0 0 Z " fill="#414141" transform="translate(334,288)"/>
<path d="M0 0 C0.66 0 1.32 0 2 0 C2.33 0.99 2.66 1.98 3 3 C4.99665314 4.68538601 4.99665314 4.68538601 7 6 C6.39009109 9.55780196 5.4216319 12.6828589 4 16 C4.33 16.33 4.66 16.66 5 17 C5.4375 19.25 5.4375 19.25 5 22 C2.25 24.8125 2.25 24.8125 -1 27 C-2.32 27 -3.64 27 -5 27 C-5.61246804 17.71090138 -4.11395196 9.76658766 -1 1 C-0.67 0.67 -0.34 0.34 0 0 Z " fill="#545454" transform="translate(400,231)"/>
<path d="M0 0 C3.79910908 0.51806033 5.86196134 1.88994348 8.75 4.375 C9.125 7.125 9.125 7.125 8.75 9.375 C6.10261084 10.8356285 4.85551666 11.375 1.75 11.375 C2.36875 12.4475 2.9875 13.52 3.625 14.625 C5.0823679 17.17280984 6.47924491 19.72759355 7.75 22.375 C6.76 22.375 5.77 22.375 4.75 22.375 C3.36328125 20.9140625 3.36328125 20.9140625 2.0625 19 C1.40701172 18.06027344 1.40701172 18.06027344 0.73828125 17.1015625 C-0.25 15.375 -0.25 15.375 -0.25 13.375 C-1.9 13.375 -3.55 13.375 -5.25 13.375 C-5.394375 14.426875 -5.53875 15.47875 -5.6875 16.5625 C-6.12526966 19.52960549 -6.62804866 22.44294366 -7.25 25.375 C-7.91 25.375 -8.57 25.375 -9.25 25.375 C-9.83649772 19.62732237 -8.69653506 14.94380991 -6.875 9.5 C-6.65368408 8.83347412 -6.43236816 8.16694824 -6.2043457 7.48022461 C-3.8205484 0.63675807 -3.8205484 0.63675807 0 0 Z " fill="#3F3F3F" transform="translate(487.25,264.625)"/>
<path d="M0 0 C-0.62031591 6.57534861 -2.14897283 12.66692592 -4 19 C-4.99 19 -5.98 19 -7 19 C-7 16.03 -7 13.06 -7 10 C-8.65 11.98 -10.3 13.96 -12 16 C-14.375 15.8125 -14.375 15.8125 -17 15 C-18.3125 12.4375 -18.3125 12.4375 -19 10 C-19.433125 11.134375 -19.86625 12.26875 -20.3125 13.4375 C-20.869375 14.613125 -21.42625 15.78875 -22 17 C-22.99 17.33 -23.98 17.66 -25 18 C-24.52412884 11.97229862 -21.80277043 7.23321711 -19 2 C-17.68 2 -16.36 2 -15 2 C-14.67 4.97 -14.34 7.94 -14 11 C-13.29875 10.29875 -12.5975 9.5975 -11.875 8.875 C-11.42125 8.42511719 -10.9675 7.97523438 -10.5 7.51171875 C-9.46350877 6.46712993 -8.44353994 5.40597888 -7.4375 4.33203125 C-3.32155582 0 -3.32155582 0 0 0 Z " fill="#545454" transform="translate(380,268)"/>
<path d="M0 0 C1.9375 1.25 1.9375 1.25 3 3 C2.76392234 5.88014749 2.22609647 6.80708795 0.00390625 8.703125 C-0.80175781 9.21359375 -1.60742188 9.7240625 -2.4375 10.25 C-3.24058594 10.77078125 -4.04367187 11.2915625 -4.87109375 11.828125 C-7 13 -7 13 -9 13 C-9.06058594 13.66386719 -9.12117188 14.32773437 -9.18359375 15.01171875 C-10.01581722 23.78207381 -10.01581722 23.78207381 -11 28 C-11.99 28 -12.98 28 -14 28 C-13.71522974 24.32796244 -13.36563277 20.66483075 -13 17 C-12.88914062 15.76507813 -12.77828125 14.53015625 -12.6640625 13.2578125 C-12.52742188 12.01773437 -12.39078125 10.77765625 -12.25 9.5 C-12.13140625 8.3346875 -12.0128125 7.169375 -11.890625 5.96875 C-11 3 -11 3 -8.6171875 1.1171875 C-5.47440743 -0.22435742 -3.38450398 -0.44145704 0 0 Z " fill="#595959" transform="translate(334,261)"/>
<path d="M0 0 C0.66 0 1.32 0 2 0 C0.38168081 7.34467941 -1.30142762 14.67349113 -3 22 C-3.99 22 -4.98 22 -6 22 C-5.505 17.545 -5.505 17.545 -5 13 C-9.455 13.495 -9.455 13.495 -14 14 C-14.66 15.98 -15.32 17.96 -16 20 C-16.99 19.67 -17.98 19.34 -19 19 C-18.36698143 13.14457821 -16.60872513 7.28041949 -14 2 C-13.01 1.67 -12.02 1.34 -11 1 C-11.875 6.75 -11.875 6.75 -13 9 C-9.37 9 -5.74 9 -2 9 C-1.855625 7.700625 -1.71125 6.40125 -1.5625 5.0625 C-1.125 1.125 -1.125 1.125 0 0 Z " fill="#757575" transform="translate(374,236)"/>
<path d="M0 0 C0.99 0 1.98 0 3 0 C3.02719556 2.37507855 3.04693247 4.74983964 3.0625 7.125 C3.07087891 7.79015625 3.07925781 8.4553125 3.08789062 9.140625 C3.10782292 13.20681354 2.78890161 17.0120092 2 21 C1.01 21 0.02 21 -1 21 C-1 19.02 -1 17.04 -1 15 C-3.87311572 14.94824448 -3.87311572 14.94824448 -7 16 C-8.76511299 18.22511214 -9.77297776 20.40437603 -11 23 C-11.66 23 -12.32 23 -13 23 C-12.39619521 20.15360328 -11.54503871 17.95371394 -10.0390625 15.46875 C-9.64976562 14.82292969 -9.26046875 14.17710937 -8.859375 13.51171875 C-8.24835938 12.51591797 -8.24835938 12.51591797 -7.625 11.5 C-7.22539062 10.83613281 -6.82578125 10.17226562 -6.4140625 9.48828125 C-1.95688315 2.14273239 -1.95688315 2.14273239 0 0 Z " fill="#505050" transform="translate(349,234)"/>
<path d="M0 0 C0.66 0 1.32 0 2 0 C2.02716824 2.54173977 2.04691969 5.08318415 2.0625 7.625 C2.07087891 8.33785156 2.07925781 9.05070312 2.08789062 9.78515625 C2.10710296 13.97344438 1.8267327 17.8728462 1 22 C0.01 21.67 -0.98 21.34 -2 21 C-2 19.35 -2 17.7 -2 16 C-4.86734521 16.0311941 -4.86734521 16.0311941 -8 17 C-10.40521237 19.93942994 -10.40521237 19.93942994 -12 23 C-13 20 -13 20 -11.5234375 16.85546875 C-10.8178533 15.6266872 -10.10120349 14.40420935 -9.375 13.1875 C-9.03082031 12.58357422 -8.68664062 11.97964844 -8.33203125 11.35742188 C-5.91120607 7.20807392 -3.25986711 3.53603526 0 0 Z " fill="#5B5B5B" transform="translate(473,264)"/>
<path d="M0 0 C0.66 0 1.32 0 2 0 C1.67 2.64 1.34 5.28 1 8 C4.3 8 7.6 8 11 8 C11.33 5.36 11.66 2.72 12 0 C12.99 0 13.98 0 15 0 C14.8659375 0.66644531 14.731875 1.33289063 14.59375 2.01953125 C14.15041826 4.24493993 13.71404479 6.47173688 13.28125 8.69921875 C13.02088543 10.02865604 12.76046775 11.35808292 12.5 12.6875 C12.36980469 13.36361328 12.23960937 14.03972656 12.10546875 14.73632812 C11.11295413 19.77409175 11.11295413 19.77409175 10 22 C9.01 22 8.02 22 7 22 C7.59950296 18.31733897 8.24758891 14.65456815 9 11 C5.7 11 2.4 11 -1 11 C-1.144375 11.763125 -1.28875 12.52625 -1.4375 13.3125 C-2 16 -2 16 -3 19 C-3.66 19 -4.32 19 -5 19 C-3.79310345 3.79310345 -3.79310345 3.79310345 0 0 Z " fill="#404040" transform="translate(381,292)"/>
<path d="M0 0 C0.99 0 1.98 0 3 0 C3.02719556 2.37507855 3.04693247 4.74983964 3.0625 7.125 C3.07087891 7.79015625 3.07925781 8.4553125 3.08789062 9.140625 C3.10782292 13.20681354 2.78890161 17.0120092 2 21 C1.01 20.67 0.02 20.34 -1 20 C-1 18.02 -1 16.04 -1 14 C-2.98 14 -4.96 14 -7 14 C-7.433125 15.1446875 -7.433125 15.1446875 -7.875 16.3125 C-9 19 -9 19 -11 22 C-11.66 22 -12.32 22 -13 22 C-11.37025124 17.42076028 -9.01022212 13.44674762 -6.5 9.3125 C-6.09652344 8.63638672 -5.69304687 7.96027344 -5.27734375 7.26367188 C-3.67449089 4.6054753 -2.20348379 2.20348379 0 0 Z " fill="#616161" transform="translate(369,290)"/>
<path d="M0 0 C0.66 0 1.32 0 2 0 C2 6.93 2 13.86 2 21 C1.01 21 0.02 21 -1 21 C-1 19.02 -1 17.04 -1 15 C-5.56756196 15.8783773 -7.52067674 16.385483 -10.4375 20.125 C-10.953125 21.07375 -11.46875 22.0225 -12 23 C-13 20 -13 20 -11.5234375 16.85546875 C-10.8178533 15.6266872 -10.10120349 14.40420935 -9.375 13.1875 C-9.03082031 12.58357422 -8.68664062 11.97964844 -8.33203125 11.35742188 C-5.91120607 7.20807392 -3.25986711 3.53603526 0 0 Z " fill="#767676" transform="translate(420,234)"/>
<path d="M0 0 C0.66 0 1.32 0 2 0 C2 7.26 2 14.52 2 22 C1.01 21.67 0.02 21.34 -1 21 C-1 19.02 -1 17.04 -1 15 C-3.83000856 14.95382909 -3.83000856 14.95382909 -7 16 C-8.99364654 18.14304124 -10.51532107 20.48392907 -12 23 C-13 20 -13 20 -12.02783203 17.93115234 C-11.52622559 17.15723145 -11.02461914 16.38331055 -10.5078125 15.5859375 C-9.96769531 14.74289063 -9.42757813 13.89984375 -8.87109375 13.03125 C-8.29488281 12.1546875 -7.71867187 11.278125 -7.125 10.375 C-6.55652344 9.49070313 -5.98804688 8.60640625 -5.40234375 7.6953125 C-1.22338339 1.22338339 -1.22338339 1.22338339 0 0 Z " fill="#484848" transform="translate(389,234)"/>
<path d="M0 0 C0 0.66 0 1.32 0 2 C-1.11375 2.309375 -2.2275 2.61875 -3.375 2.9375 C-6.7945155 3.82326483 -6.7945155 3.82326483 -9 5 C-9.41990073 7.74723247 -9.41990073 7.74723247 -9 11 C-8.175 11.969375 -7.35 12.93875 -6.5 13.9375 C-4 17 -4 17 -3.4375 20.6875 C-4 24 -4 24 -5.5 25.875 C-9.00542808 27.45244264 -12.17099729 27.68091644 -16 28 C-16 27.01 -16 26.02 -16 25 C-13.03 24.34 -10.06 23.68 -7 23 C-7.433125 21.906875 -7.86625 20.81375 -8.3125 19.6875 C-8.55613281 19.07261719 -8.79976563 18.45773438 -9.05078125 17.82421875 C-9.91243082 15.90910081 -9.91243082 15.90910081 -11.609375 14.546875 C-13 13 -13 13 -13.21484375 10.87890625 C-12.77970709 7.24459582 -12.36328296 4.59578406 -10.4375 1.4375 C-6.84290308 -0.68239049 -4.13282995 -0.275522 0 0 Z " fill="#454545" transform="translate(336,231)"/>
<path d="M0 0 C0.99 0 1.98 0 3 0 C3.39313299 7.78985732 3.61564339 15.88564717 -1.8125 22.0625 C-4.78212829 23.33519784 -6.80556759 23.47576653 -10 23 C-13.47300938 20.0060264 -13.57769703 16.39195091 -14 12 C-13.01 12 -12.02 12 -11 12 C-10.5875 13.134375 -10.175 14.26875 -9.75 15.4375 C-8.46196337 19.11915178 -8.46196337 19.11915178 -5.890625 19.72265625 C-5.26671875 19.81417969 -4.6428125 19.90570313 -4 20 C-1.39099399 13.35441866 -0.3856646 7.11484687 0 0 Z " fill="#4D4D4D" transform="translate(456,267)"/>
<path d="M0 0 C3.63 0 7.26 0 11 0 C11 0.66 11 1.32 11 2 C8.03 2 5.06 2 2 2 C2 3.65 2 5.3 2 7 C3.98 7 5.96 7 8 7 C8 7.66 8 8.32 8 9 C5.69 9 3.38 9 1 9 C0.67 11.64 0.34 14.28 0 17 C1.65 17 3.3 17 5 17 C5 17.66 5 18.32 5 19 C2.29120665 20.35439668 -0.00933268 20.06501451 -3 20 C-4.43027825 15.36733774 -3.39403523 11.6905884 -2.0625 7.1875 C-1.86720703 6.49462891 -1.67191406 5.80175781 -1.47070312 5.08789062 C-0.99035554 3.38910039 -0.49651979 1.69413405 0 0 Z " fill="#505050" transform="translate(399,268)"/>
<path d="M0 0 C0.66 0 1.32 0 2 0 C2.33 0.99 2.66 1.98 3 3 C3.99 3.33 4.98 3.66 6 4 C6.6875 7.3125 6.6875 7.3125 7 11 C5.6875 12.9375 5.6875 12.9375 4 14 C3.34 14 2.68 14 2 14 C2 14.66 2 15.32 2 16 C0.68 16 -0.64 16 -2 16 C-3.19937786 9.62740199 -3.06475363 5.76173683 0 0 Z " fill="#464646" transform="translate(387,261)"/>
<path d="M0 0 C3.96 0 7.92 0 12 0 C12 0.66 12 1.32 12 2 C8.7 2 5.4 2 2 2 C2 3.65 2 5.3 2 7 C3.98 7 5.96 7 8 7 C8 7.66 8 8.32 8 9 C5.69 9 3.38 9 1 9 C0.67 11.64 0.34 14.28 0 17 C1.65 17 3.3 17 5 17 C5 17.66 5 18.32 5 19 C2.36 19 -0.28 19 -3 19 C-3.34146563 11.94304359 -2.26398733 6.69762919 0 0 Z " fill="#4F4F4F" transform="translate(342,268)"/>
<path d="M0 0 C-0.33 0.99 -0.66 1.98 -1 3 C-3.31 3 -5.62 3 -8 3 C-8.04898437 3.556875 -8.09796875 4.11375 -8.1484375 4.6875 C-8.66555577 9.96567265 -9.60462463 14.88362365 -11 20 C-11.99 20 -12.98 20 -14 20 C-13.68806536 18.27073126 -13.37542638 16.54158956 -13.0625 14.8125 C-12.88847656 13.84957031 -12.71445312 12.88664063 -12.53515625 11.89453125 C-12.0476265 9.25760028 -11.53328895 6.6280095 -11 4 C-13.64 4 -16.28 4 -19 4 C-19 3.34 -19 2.68 -19 2 C-12.53991163 0.04978464 -6.7281627 -0.22262303 0 0 Z " fill="#4D4D4D" transform="translate(445,236)"/>
<path d="M0 0 C0.66 0 1.32 0 2 0 C2.33 0.99 2.66 1.98 3 3 C4.99665314 4.68538601 4.99665314 4.68538601 7 6 C6.625 8.4375 6.625 8.4375 6 11 C5.01 11.495 5.01 11.495 4 12 C4 10.02 4 8.04 4 6 C2.68 6 1.36 6 0 6 C-0.33 8.64 -0.66 11.28 -1 14 C-0.01 14.33 0.98 14.66 2 15 C0.68 15.33 -0.64 15.66 -2 16 C-2.33 19.63 -2.66 23.26 -3 27 C-3.66 27 -4.32 27 -5 27 C-5.61246804 17.71090138 -4.11395196 9.76658766 -1 1 C-0.67 0.67 -0.34 0.34 0 0 Z " fill="#464646" transform="translate(400,231)"/>
<path d="M0 0 C0.99 0 1.98 0 3 0 C3.33 0.99 3.66 1.98 4 3 C6.47266765 2.65555119 6.47266765 2.65555119 9 2 C9.33 1.34 9.66 0.68 10 0 C10.99 0 11.98 0 13 0 C12.37798054 2.54242904 11.75248241 5.08391875 11.125 7.625 C10.95097656 8.33785156 10.77695312 9.05070312 10.59765625 9.78515625 C9.57145662 13.92796216 8.41209271 17.96726678 7 22 C6.34 22 5.68 22 5 22 C4.63736141 16.1977825 5.74315457 12.36000789 8 7 C7.236875 7.061875 6.47375 7.12375 5.6875 7.1875 C3 7 3 7 1.1875 5.75 C0 4 0 4 0 0 Z " fill="#515151" transform="translate(343,294)"/>
<path d="M0 0 C0.66 0 1.32 0 2 0 C1.50216787 5.67528623 0.29591971 9.73851732 -2 15 C-2.4054103 17.32189536 -2.76072994 19.65515344 -3 22 C-0.69 22 1.62 22 4 22 C2.9375 23.5625 2.9375 23.5625 1 25 C-2.6875 24.6875 -2.6875 24.6875 -6 24 C-6.83436208 15.82325159 -3.89382394 8.52394224 -1 1 C-0.67 0.67 -0.34 0.34 0 0 Z " fill="#464646" transform="translate(418,262)"/>
<path d="M0 0 C0.66 0 1.32 0 2 0 C2 2.31 2 4.62 2 7 C2.598125 6.67 3.19625 6.34 3.8125 6 C6 5 6 5 9 5 C9 5.66 9 6.32 9 7 C4.61538462 10 4.61538462 10 2 10 C1.93941406 10.66386719 1.87882812 11.32773437 1.81640625 12.01171875 C0.98418278 20.78207381 0.98418278 20.78207381 0 25 C-0.99 25 -1.98 25 -3 25 C-2.34938113 16.61044093 -1.25101251 8.31984045 0 0 Z " fill="#474747" transform="translate(323,264)"/>
<path d="M0 0 C6.56804086 0.9014958 6.56804086 0.9014958 9.3125 1.52734375 C17.34389269 2.93984159 25.97885662 2.28338294 34 1 C32.74136239 4.485458 31.25920421 7.08186123 29 10 C28.30419733 11.31836295 27.62775567 12.64791086 27 14 C25.82407324 9.88425634 26.29817397 7.86483393 28 4 C26.88882812 4.02320313 25.77765625 4.04640625 24.6328125 4.0703125 C7.20016319 4.3250612 7.20016319 4.3250612 1 2 C0.67 1.34 0.34 0.68 0 0 Z " fill="#E5F2F9" transform="translate(254,386)"/>
<path d="M0 0 C0.66 0 1.32 0 2 0 C1.67 8.58 1.34 17.16 1 26 C0.34 26 -0.32 26 -1 26 C-0.67 28.64 -0.34 31.28 0 34 C-1.485 34.495 -1.485 34.495 -3 35 C-2.38582209 23.28213196 -1.3053624 11.65954766 0 0 Z " fill="#65829B" transform="translate(172,290)"/>
<path d="M0 0 C0 4.62 0 9.24 0 14 C-0.33 14 -0.66 14 -1 14 C-1 12.35 -1 10.7 -1 9 C-3.86734521 9.0311941 -3.86734521 9.0311941 -7 10 C-9.40521237 12.93942994 -9.40521237 12.93942994 -11 16 C-12 13 -12 13 -10.70703125 10.1171875 C-10.08183594 9.04726563 -9.45664062 7.97734375 -8.8125 6.875 C-8.20019531 5.79992187 -7.58789062 4.72484375 -6.95703125 3.6171875 C-5 1 -5 1 -2.82421875 0.1328125 C-1.88426 0.06437867 -0.94244662 0 0 0 Z " fill="#989898" transform="translate(472,271)"/>
<path d="M0 0 C5.26320483 -0.7518864 9.2217742 1.02280312 14 3 C12.02 3.99 12.02 3.99 10 5 C10 4.34 10 3.68 10 3 C5.545 3.495 5.545 3.495 1 4 C0.67 5.98 0.34 7.96 0 10 C0.99 10.33 1.98 10.66 3 11 C3 12.32 3 13.64 3 15 C2.34 15 1.68 15 1 15 C0.67 15.66 0.34 16.32 0 17 C-1.83117102 13.86811623 -2.2718057 11.55179405 -2.25 7.9375 C-2.25515625 7.08027344 -2.2603125 6.22304688 -2.265625 5.33984375 C-2 3 -2 3 0 0 Z " fill="#7390A6" transform="translate(194,259)"/>
<path d="M0 0 C0.66 0 1.32 0 2 0 C2 4.62 2 9.24 2 14 C1.67 14 1.34 14 1 14 C1 12.02 1 10.04 1 8 C-0.98 8 -2.96 8 -5 8 C-5.433125 9.1446875 -5.433125 9.1446875 -5.875 10.3125 C-7 13 -7 13 -9 16 C-9.66 16 -10.32 16 -11 16 C-9.62712658 12.30123909 -7.93644547 9.0485524 -5.875 5.6875 C-5.33617187 4.80449219 -4.79734375 3.92148437 -4.2421875 3.01171875 C-3.83226562 2.34785156 -3.42234375 1.68398438 -3 1 C-2.34 1.33 -1.68 1.66 -1 2 C-0.67 1.34 -0.34 0.68 0 0 Z " fill="#656565" transform="translate(367,296)"/>
<path d="M0 0 C3.52334488 -0.41451116 5.09055863 0.04613364 8.3125 1.6875 C11 4 11 4 11.375 6.75 C11.25125 7.4925 11.1275 8.235 11 9 C10.34 7.68 9.68 6.36 9 5 C8.67 5.99 8.34 6.98 8 8 C6.02 8.33 4.04 8.66 2 9 C1.67 7.02 1.34 5.04 1 3 C0.01 3.33 -0.98 3.66 -2 4 C-1.34 2.68 -0.68 1.36 0 0 Z " fill="#626262" transform="translate(485,265)"/>
<path d="M0 0 C0.33 0.66 0.66 1.32 1 2 C1.66 2 2.32 2 3 2 C3 5.63 3 9.26 3 13 C0.69 13 -1.62 13 -4 13 C-4.45732667 7.28341664 -3.52273754 4.51350747 0 0 Z " fill="#747474" transform="translate(333,290)"/>
<path d="M0 0 C2 2 2 2 2.23046875 4.66015625 C2.11085768 14.13117803 1.64061236 23.5509677 1 33 C0.67 33 0.34 33 0 33 C-1.08101957 28.62444459 -1.15287504 24.35441969 -1.125 19.875 C-1.12306641 19.12742432 -1.12113281 18.37984863 -1.11914062 17.60961914 C-1.07339698 11.70297098 -0.70955213 5.86647566 0 0 Z " fill="#638094" transform="translate(275,280)"/>
<path d="M0 0 C0.66 0.33 1.32 0.66 2 1 C1.84660156 1.75539063 1.69320313 2.51078125 1.53515625 3.2890625 C0.8112152 8.3090917 0.63680847 13.31060444 0.4375 18.375 C0.39431641 19.39722656 0.35113281 20.41945313 0.30664062 21.47265625 C0.20112208 23.98165288 0.09900787 26.49073943 0 29 C-0.99 28.67 -1.98 28.34 -3 28 C-2.91621094 26.89140625 -2.83242188 25.7828125 -2.74609375 24.640625 C-2.64289695 23.17710672 -2.54005074 21.71356369 -2.4375 20.25 C-2.38142578 19.52039063 -2.32535156 18.79078125 -2.26757812 18.0390625 C-1.95748045 13.93593882 -1.95748045 13.93593882 -2.52734375 9.890625 C-3.15269494 7.38922023 -2.54275342 6.10260821 -1.5625 3.75 C-1.27503906 3.04359375 -0.98757813 2.3371875 -0.69140625 1.609375 C-0.46324219 1.07828125 -0.23507812 0.5471875 0 0 Z " fill="#5D7C94" transform="translate(301,389)"/>
<path d="M0 0 C0.66 0 1.32 0 2 0 C2 3.63 2 7.26 2 11 C1.34 11 0.68 11 0 11 C0 9.35 0 7.7 0 6 C-0.66 6 -1.32 6 -2 6 C-2.33 8.64 -2.66 11.28 -3 14 C-4.32 14 -5.64 14 -7 14 C-7.42640253 9.55435877 -6.41064126 7.61554425 -3.625 4.1875 C-2.68527344 3.00220703 -2.68527344 3.00220703 -1.7265625 1.79296875 C-1.15679687 1.20128906 -0.58703125 0.60960937 0 0 Z " fill="#585858" transform="translate(420,234)"/>
<path d="M0 0 C0 0.99 0 1.98 0 3 C-7.92542935 4.02263604 -16.02129894 4.63271957 -24 4 C-24.66 3.34 -25.32 2.68 -26 2 C-24.87980469 1.93941406 -23.75960938 1.87882812 -22.60546875 1.81640625 C-21.13280016 1.73198576 -19.66014456 1.64733851 -18.1875 1.5625 C-17.44951172 1.52318359 -16.71152344 1.48386719 -15.95117188 1.44335938 C-10.45006301 1.11976474 -5.54885578 -0.10469539 0 0 Z " fill="#7390A4" transform="translate(290,385)"/>
<path d="M0 0 C2.64 0 5.28 0 8 0 C7.67 4.29 7.34 8.58 7 13 C6.67 12.01 6.34 11.02 6 10 C5.34 10 4.68 10 4 10 C4 8.35 4 6.7 4 5 C4.66 4.67 5.32 4.34 6 4 C3.69 4 1.38 4 -1 4 C-0.67 2.68 -0.34 1.36 0 0 Z " fill="#6486A0" transform="translate(352,393)"/>
<path d="M0 0 C0.33 0 0.66 0 1 0 C1 1.65 1 3.3 1 5 C3.97 5.33 6.94 5.66 10 6 C10 6.33 10 6.66 10 7 C6.7 7 3.4 7 0 7 C-0.144375 7.763125 -0.28875 8.52625 -0.4375 9.3125 C-1 12 -1 12 -2 15 C-2.66 15 -3.32 15 -4 15 C-3.63495936 9.33557626 -2.9445679 4.99296295 0 0 Z " fill="#4C4C4C" transform="translate(380,296)"/>
<path d="M0 0 C1.26650391 0.00966797 1.26650391 0.00966797 2.55859375 0.01953125 C3.43128906 0.03628906 4.30398438 0.05304688 5.203125 0.0703125 C6.53537109 0.08384766 6.53537109 0.08384766 7.89453125 0.09765625 C10.08100558 0.12116673 12.26692594 0.15402751 14.453125 0.1953125 C14.453125 0.8553125 14.453125 1.5153125 14.453125 2.1953125 C15.773125 2.5253125 17.093125 2.8553125 18.453125 3.1953125 C18.123125 3.8553125 17.793125 4.5153125 17.453125 5.1953125 C16.84726562 4.97875 16.24140625 4.7621875 15.6171875 4.5390625 C8.60272979 2.20810425 0.64301203 0.47139054 -6.546875 3.1953125 C-6.876875 4.1853125 -7.206875 5.1753125 -7.546875 6.1953125 C-7.876875 4.8753125 -8.206875 3.5553125 -8.546875 2.1953125 C-5.55561181 0.47325062 -3.44001787 -0.04648673 0 0 Z " fill="#607F95" transform="translate(312.546875,346.8046875)"/>
<path d="M0 0 C0.99 0 1.98 0 3 0 C2.52060632 4.71403788 2.03165952 8.66579301 0 13 C-0.66 13 -1.32 13 -2 13 C-2 11.02 -2 9.04 -2 7 C-2.99 7 -3.98 7 -5 7 C-1.125 1.125 -1.125 1.125 0 0 Z " fill="#464646" transform="translate(377,268)"/>
<path d="M0 0 C0.66 0 1.32 0 2 0 C0.38168081 7.34467941 -1.30142762 14.67349113 -3 22 C-3.66 22 -4.32 22 -5 22 C-4.00804829 4.00804829 -4.00804829 4.00804829 0 0 Z " fill="#4B4B4B" transform="translate(374,236)"/>
<path d="M0 0 C8.56674915 -0.33328851 15.95073076 -0.11584616 24 3 C24 3.33 24 3.66 24 4 C19.38 4 14.76 4 10 4 C10 3.67 10 3.34 10 3 C6.7 2.67 3.4 2.34 0 2 C0 1.34 0 0.68 0 0 Z " fill="#7592A9" transform="translate(182,344)"/>
<path d="M0 0 C3.63 0.33 7.26 0.66 11 1 C11 4.96 11 8.92 11 13 C10.67 13 10.34 13 10 13 C10 9.37 10 5.74 10 2 C5.88464468 1.99059694 5.88464468 1.99059694 2 3 C0.30445786 4.99005318 -0.8198616 6.95280158 -1.9921875 9.28515625 C-2.32476562 9.85105469 -2.65734375 10.41695313 -3 11 C-3.66 11 -4.32 11 -5 11 C-4.32902328 6.80639551 -2.1441606 3.59665648 0 0 Z " fill="#787878" transform="translate(325,303)"/>
<path d="M0 0 C0.33 0.66 0.66 1.32 1 2 C1.66 2 2.32 2 3 2 C2.67 4.31 2.34 6.62 2 9 C-2.75 10.125 -2.75 10.125 -5 9 C-3.7508258 5.54074837 -2.32472205 2.85306797 0 0 Z " fill="#545454" transform="translate(347,237)"/>
<path d="M0 0 C0.33 0 0.66 0 1 0 C1.1968121 2.04079005 1.38202831 4.08270007 1.5625 6.125 C1.66691406 7.26195312 1.77132813 8.39890625 1.87890625 9.5703125 C1.99608016 12.88897993 1.6655072 15.7562686 1 19 C-4.75 20.125 -4.75 20.125 -7 19 C-6.195625 18.236875 -5.39125 17.47375 -4.5625 16.6875 C-1.06508369 13.01947802 -0.83986341 10.19834146 -0.4375 5.3125 C-0.35371094 4.31863281 -0.26992188 3.32476562 -0.18359375 2.30078125 C-0.12300781 1.54152344 -0.06242187 0.78226562 0 0 Z " fill="#5E83A1" transform="translate(337,360)"/>
<path d="M0 0 C7.88555443 7.67243133 7.88555443 7.67243133 8.3125 12.625 C8 16 8 16 6 18 C4.80712589 14.12315913 4 11.08378077 4 7 C3.34 7 2.68 7 2 7 C1.34 4.69 0.68 2.38 0 0 Z " fill="#67869B" transform="translate(238,280)"/>
<path d="M0 0 C1.32 0.33 2.64 0.66 4 1 C4 1.99 4 2.98 4 4 C2.68 4 1.36 4 0 4 C0.309375 5.2375 0.309375 5.2375 0.625 6.5 C1.0940915 10.87818732 0.23317492 13.79269734 -1 18 C-1.66 18 -2.32 18 -3 18 C-3.36517527 11.42684522 -2.13619737 6.20514474 0 0 Z " fill="#6C6C6C" transform="translate(481,272)"/>
<path d="M0 0 C0.66 0 1.32 0 2 0 C2.33 0.99 2.66 1.98 3 3 C4.99665314 4.68538601 4.99665314 4.68538601 7 6 C6.625 8.4375 6.625 8.4375 6 11 C5.01 11.495 5.01 11.495 4 12 C4 10.02 4 8.04 4 6 C2.68 6 1.36 6 0 6 C-0.33 7.32 -0.66 8.64 -1 10 C-2.15837626 5.94568308 -1.83691257 3.78187881 0 0 Z " fill="#535353" transform="translate(400,231)"/>
<path d="M0 0 C0.33 0.66 0.66 1.32 1 2 C0.67 2.66 0.34 3.32 0 4 C0.66 4 1.32 4 2 4 C1.67 6.31 1.34 8.62 1 11 C-0.65 11.33 -2.3 11.66 -4 12 C-4.65234375 10.265625 -4.65234375 10.265625 -5 8 C-4.00390625 5.859375 -4.00390625 5.859375 -2.5625 3.75 C-2.08941406 3.04359375 -1.61632812 2.3371875 -1.12890625 1.609375 C-0.75636719 1.07828125 -0.38382812 0.5471875 0 0 Z " fill="#585858" transform="translate(388,235)"/>
<path d="M0 0 C0.66 0.99 1.32 1.98 2 3 C2.66 2.34 3.32 1.68 4 1 C3.5020163 4.73487777 3.12508244 6.81237635 1 10 C0.67 10.99 0.34 11.98 0 13 C-2.0625 13.6875 -2.0625 13.6875 -4 14 C-4.33 13.34 -4.66 12.68 -5 12 C-4.2578125 10.1953125 -4.2578125 10.1953125 -3.125 8.125 C-1.6560009 5.42327438 -0.6354956 3.01522382 0 0 Z " fill="#64859D" transform="translate(230,330)"/>
<path d="M0 0 C10.85859801 -0.25991325 21.25704615 0.3999856 32 2 C32 2.33 32 2.66 32 3 C29.18743719 3.02684312 26.37512759 3.04676188 23.5625 3.0625 C22.76005859 3.07087891 21.95761719 3.07925781 21.13085938 3.08789062 C19.08704779 3.0965143 17.04316098 3.0522815 15 3 C14.67 2.67 14.34 2.34 14 2 C11.65012738 1.76472227 9.29443961 1.58613583 6.9375 1.4375 C5.64714844 1.35371094 4.35679687 1.26992187 3.02734375 1.18359375 C1.52880859 1.09271484 1.52880859 1.09271484 0 1 C0 0.67 0 0.34 0 0 Z " fill="#7E9AAF" transform="translate(224,227)"/>
<path d="M0 0 C0.66 0 1.32 0 2 0 C2.33 1.98 2.66 3.96 3 6 C4.32 6.33 5.64 6.66 7 7 C6.01 7.33 5.02 7.66 4 8 C3.67 8.66 3.34 9.32 3 10 C1.02 10 -0.96 10 -3 10 C-3 9.34 -3 8.68 -3 8 C-1.68 8 -0.36 8 1 8 C1 7.01 1 6.02 1 5 C0.01 5.33 -0.98 5.66 -2 6 C-1.125 1.125 -1.125 1.125 0 0 Z " fill="#515151" transform="translate(484,268)"/>
<path d="M0 0 C1.9375 0.3125 1.9375 0.3125 4 1 C4.33 1.99 4.66 2.98 5 4 C4.34 4 3.68 4 3 4 C3.01160156 4.59167969 3.02320313 5.18335938 3.03515625 5.79296875 C3.08322386 10.00231785 3.06006883 13.8922333 2 18 C1.67 18 1.34 18 1 18 C0.04380267 14.00204108 -0.1039592 10.29196078 -0.0625 6.1875 C-0.05347656 5.02605469 -0.04445312 3.86460937 -0.03515625 2.66796875 C-0.02355469 1.78753906 -0.01195312 0.90710938 0 0 Z " fill="#6E8BA0" transform="translate(255,275)"/>
<path d="M0 0 C0.33 0.66 0.66 1.32 1 2 C1.66 2.33 2.32 2.66 3 3 C1.35 3.66 -0.3 4.32 -2 5 C-2 5.66 -2 6.32 -2 7 C-2.66 7 -3.32 7 -4 7 C-4.4021875 7.8353125 -4.4021875 7.8353125 -4.8125 8.6875 C-6.10899496 11.21225334 -7.42476323 13.63714484 -9 16 C-9.66 16 -10.32 16 -11 16 C-10.40683971 12.0942676 -8.51378095 9.78196414 -6.0625 6.75 C-5.35222656 5.85796875 -4.64195312 4.9659375 -3.91015625 4.046875 C-3.27980469 3.37140625 -2.64945312 2.6959375 -2 2 C-1.34 2 -0.68 2 0 2 C0 1.34 0 0.68 0 0 Z " fill="#C6E2F1" transform="translate(301,332)"/>
<path d="M0 0 C0.99 0 1.98 0 3 0 C2.97679687 0.78503906 2.95359375 1.57007813 2.9296875 2.37890625 C2.82715219 8.34792603 2.95419461 13.37403518 5 19 C3.68 18.67 2.36 18.34 1 18 C0.67 12.06 0.34 6.12 0 0 Z " fill="#5A7C96" transform="translate(179,261)"/>
<path d="M0 0 C1.65 0 3.3 0 5 0 C5 0.33 5 0.66 5 1 C9.29 1.33 13.58 1.66 18 2 C18 2.66 18 3.32 18 4 C12.72 4 7.44 4 2 4 C1.34 2.68 0.68 1.36 0 0 Z " fill="#CFE2EA" transform="translate(268,234)"/>
<path d="M0 0 C4.31320068 1.75722991 7.9031084 4.8062168 10 9 C7.6875 9.25 7.6875 9.25 5 9 C3.1875 7 3.1875 7 2 5 C1.01 5.495 1.01 5.495 0 6 C-1 3 -1 3 0 0 Z " fill="#6787A0" transform="translate(366,338)"/>
<path d="M0 0 C0.95792977 3.63852314 1.49800802 7.27091669 2 11 C1.67 10.34 1.34 9.68 1 9 C-3.26826873 9 -3.93882432 9.37613513 -7 12 C-5.44298069 7.32894208 -2.91552627 3.91294315 0 0 Z " fill="#688AA5" transform="translate(189,240)"/>
<path d="M0 0 C1.65 0 3.3 0 5 0 C6.9078584 3.1749094 7.1609041 5.10585211 6.625 8.75 C6.51414062 9.54921875 6.40328125 10.3484375 6.2890625 11.171875 C6.19367188 11.77515625 6.09828125 12.3784375 6 13 C4.16757734 9.39861521 2.58343276 5.71762475 1 2 C0.67 1.34 0.34 0.68 0 0 Z " fill="#6486A1" transform="translate(357,345)"/>
<path d="M0 0 C2.4375 1.1875 2.4375 1.1875 5 3 C6.13809668 6.72468005 5.97902603 9.97120436 5.5625 13.8125 C5.46066406 14.78832031 5.35882813 15.76414062 5.25390625 16.76953125 C5.17011719 17.50558594 5.08632812 18.24164063 5 19 C4.67 19 4.34 19 4 19 C3.81824219 17.82244141 3.81824219 17.82244141 3.6328125 16.62109375 C2.72813917 10.94948787 1.7420701 5.47507746 0 0 Z " fill="#607E93" transform="translate(227,310)"/>
<path d="M0 0 C0.33 0.66 0.66 1.32 1 2 C3.31 2 5.62 2 8 2 C8 4.31 8 6.62 8 9 C7.67 9 7.34 9 7 9 C7 7.02 7 5.04 7 3 C4.12688428 2.94824448 4.12688428 2.94824448 1 4 C-0.76511299 6.22511214 -1.77297776 8.40437603 -3 11 C-3.66 11 -4.32 11 -5 11 C-4.32902328 6.80639551 -2.1441606 3.59665648 0 0 Z " fill="#616161" transform="translate(341,246)"/>
<path d="M0 0 C0.66 0.66 1.32 1.32 2 2 C-4.17918693 4.64822297 -9.35214356 5.11267553 -16 5 C-12.7958766 2.15358159 -10.55658073 1.59032052 -6.3125 1.375 C-2.84446395 1.47075476 -2.84446395 1.47075476 0 0 Z " fill="#638097" transform="translate(304,448)"/>
<path d="M0 0 C0.33 0.66 0.66 1.32 1 2 C3.31 2 5.62 2 8 2 C8 4.31 8 6.62 8 9 C7.67 9 7.34 9 7 9 C7 7.02 7 5.04 7 3 C4.16999144 2.95382909 4.16999144 2.95382909 1 4 C-0.99364654 6.14304124 -2.51532107 8.48392907 -4 11 C-5 8 -5 8 -4.00390625 5.95703125 C-3.52824219 5.24933594 -3.05257813 4.54164063 -2.5625 3.8125 C-2.08941406 3.09707031 -1.61632812 2.38164062 -1.12890625 1.64453125 C-0.75636719 1.10183594 -0.38382812 0.55914062 0 0 Z " fill="#5C5C5C" transform="translate(381,246)"/>
<path d="M0 0 C0.99 0 1.98 0 3 0 C3 0.99 3 1.98 3 3 C4.65 3 6.3 3 8 3 C8 3.66 8 4.32 8 5 C5.29120665 6.35439668 2.99066732 6.06501451 0 6 C-0.38218767 4.34385343 -0.71395102 2.67542976 -1 1 C-0.67 0.67 -0.34 0.34 0 0 Z " fill="#585858" transform="translate(396,282)"/>
<path d="M0 0 C0.66 0.33 1.32 0.66 2 1 C2.38749213 3.32495277 2.71758117 5.6599583 3 8 C3.33 8.99 3.66 9.98 4 11 C4.99 11.33 5.98 11.66 7 12 C7 12.66 7 13.32 7 14 C2.58848955 12.52949652 0.14860084 8.95377777 -2 5 C-2 4.01 -2 3.02 -2 2 C-1.34 2 -0.68 2 0 2 C0 1.34 0 0.68 0 0 Z " fill="#5F7E95" transform="translate(197,272)"/>
<path d="M0 0 C2.31 0.66 4.62 1.32 7 2 C7 2.99 7 3.98 7 5 C2.05 5 -2.9 5 -8 5 C-8 4.67 -8 4.34 -8 4 C-5.03 4 -2.06 4 1 4 C0.67 2.68 0.34 1.36 0 0 Z " fill="#748EA2" transform="translate(272,434)"/>
<path d="M0 0 C0.33 0 0.66 0 1 0 C0.67 2.64 0.34 5.28 0 8 C1.65 8 3.3 8 5 8 C5 8.66 5 9.32 5 10 C2.36 10 -0.28 10 -3 10 C-3.3648363 5.74357648 -2.47460354 3.46444495 0 0 Z " fill="#414141" transform="translate(342,277)"/>
<path d="M0 0 C0.66 0.66 1.32 1.32 2 2 C-2.62 2 -7.24 2 -12 2 C-8.46273379 -3.30589931 -5.47548498 -1.89153117 0 0 Z " fill="#587A93" transform="translate(278,452)"/>
<path d="M0 0 C0.33 0.66 0.66 1.32 1 2 C0.484375 2.53625 -0.03125 3.0725 -0.5625 3.625 C-2.48015758 6.79330383 -1.76666953 8.47332015 -1 12 C-1.33 12.66 -1.66 13.32 -2 14 C-2.99 13.67 -3.98 13.34 -5 13 C-5.64165788 7.73840541 -4.20577001 5.31407151 -1.09375 1.3203125 C-0.55234375 0.66675781 -0.55234375 0.66675781 0 0 Z " fill="#6A849A" transform="translate(287,389)"/>
<path d="M0 0 C0.66 0.33 1.32 0.66 2 1 C1.67 2.98 1.34 4.96 1 7 C-1.64 7.33 -4.28 7.66 -7 8 C-6.34 6.35 -5.68 4.7 -5 3 C-4.01 3 -3.02 3 -2 3 C-1.34 2.01 -0.68 1.02 0 0 Z " fill="#999999" transform="translate(435,270)"/>
<path d="M0 0 C1.4540625 0.0309375 1.4540625 0.0309375 2.9375 0.0625 C2.9375 1.0525 2.9375 2.0425 2.9375 3.0625 C0.6275 4.3825 -1.6825 5.7025 -4.0625 7.0625 C-4.10504356 5.06295254 -4.10330783 3.06208364 -4.0625 1.0625 C-3.0625 0.0625 -3.0625 0.0625 0 0 Z " fill="#E5E5E5" transform="translate(330.0625,263.9375)"/>
<path d="M0 0 C1.8125 0.125 1.8125 0.125 4 1 C7 6.03571429 7 6.03571429 7 9 C2.36285097 7.53563715 2.36285097 7.53563715 0.6875 5.0625 C0 3 0 3 0 0 Z " fill="#67859D" transform="translate(378,351)"/>
<path d="M0 0 C0.33 0 0.66 0 1 0 C1 5.61 1 11.22 1 17 C0.34 17 -0.32 17 -1 17 C-1 14.36 -1 11.72 -1 9 C-1.99 8.67 -2.98 8.34 -4 8 C-3.01 8 -2.02 8 -1 8 C-0.67 5.36 -0.34 2.72 0 0 Z " fill="#393939" transform="translate(370,294)"/>
<path d="M0 0 C1.65 0 3.3 0 5 0 C5.33 1.32 5.66 2.64 6 4 C1.71 4 -2.58 4 -7 4 C-7.33 3.34 -7.66 2.68 -8 2 C-5.36 2 -2.72 2 0 2 C0 1.34 0 0.68 0 0 Z " fill="#587A94" transform="translate(267,434)"/>
<path d="M0 0 C0.99 0.33 1.98 0.66 3 1 C2.67 4.3 2.34 7.6 2 11 C1.01 11 0.02 11 -1 11 C-0.67 7.37 -0.34 3.74 0 0 Z " fill="#565656" transform="translate(321,278)"/>
<path d="M0 0 C0.33 0.66 0.66 1.32 1 2 C1.66 2.33 2.32 2.66 3 3 C1.6875 6.4375 1.6875 6.4375 0 10 C-0.99 10.33 -1.98 10.66 -3 11 C-2.44894091 7.0507432 -1.61064629 3.65079826 0 0 Z " fill="#5A5A5A" transform="translate(358,275)"/>
<path d="M0 0 C0.99773437 0.02320313 1.99546875 0.04640625 3.0234375 0.0703125 C4.52777344 0.09738281 4.52777344 0.09738281 6.0625 0.125 C6.83335937 0.14820313 7.60421875 0.17140625 8.3984375 0.1953125 C8.0684375 1.1853125 7.7384375 2.1753125 7.3984375 3.1953125 C3.23705487 3.27690824 -0.5488109 3.17779774 -4.6015625 2.1953125 C-2.6015625 0.1953125 -2.6015625 0.1953125 0 0 Z " fill="#787878" transform="translate(436.6015625,235.8046875)"/>
<path d="M0 0 C0.67359336 2.09562378 1.1227239 3.52663637 0.5625 5.6875 C-0.20961174 8.86173715 -0.35136935 11.99255569 -0.5625 15.25 C-0.64628906 16.51328125 -0.73007812 17.7765625 -0.81640625 19.078125 C-0.87699219 20.04234375 -0.93757813 21.0065625 -1 22 C-1.33 22 -1.66 22 -2 22 C-2 15.4 -2 8.8 -2 2 C-1.34 2 -0.68 2 0 2 C0 1.34 0 0.68 0 0 Z " fill="#708BA1" transform="translate(266,332)"/>
<path d="M0 0 C0.33 0 0.66 0 1 0 C1 5.61 1 11.22 1 17 C0.34 17 -0.32 17 -1 17 C-1 14.36 -1 11.72 -1 9 C-1.99 8.67 -2.98 8.34 -4 8 C-3.01 7.67 -2.02 7.34 -1 7 C-0.67 4.69 -0.34 2.38 0 0 Z " fill="#3B3B3B" transform="translate(473,269)"/>
<path d="M0 0 C2.96175123 0.61277612 4.38058783 1.25372522 7 3 C7 3.66 7 4.32 7 5 C5.02 5.33 3.04 5.66 1 6 C0.67 4.02 0.34 2.04 0 0 Z " fill="#E2E2E2" transform="translate(486,268)"/>
<path d="M0 0 C1.98 0.495 1.98 0.495 4 1 C3.75 3.375 3.75 3.375 3 6 C0.9375 7.3125 0.9375 7.3125 -1 8 C-0.67 5.36 -0.34 2.72 0 0 Z " fill="#E0E0E0" transform="translate(387,267)"/>
<path d="M0 0 C0.66 0 1.32 0 2 0 C1.125 5.75 1.125 5.75 0 8 C3.3 8 6.6 8 10 8 C10 8.33 10 8.66 10 9 C6.37 9 2.74 9 -1 9 C-1.625 6.1875 -1.625 6.1875 -2 3 C-1.34 2.01 -0.68 1.02 0 0 Z " fill="#626262" transform="translate(361,237)"/>
<path d="M0 0 C3.63 0 7.26 0 11 0 C11 2.31 11 4.62 11 7 C9.5 5.625 9.5 5.625 8 4 C8 3.34 8 2.68 8 2 C5.36 2 2.72 2 0 2 C0 1.34 0 0.68 0 0 Z " fill="#5A5A5A" transform="translate(426,238)"/>
<path d="M0 0 C3.26008643 3.16952847 6.22237877 6.39937989 9 10 C8.01 10.495 8.01 10.495 7 11 C4.875 10.0625 4.875 10.0625 3 9 C3 7.68 3 6.36 3 5 C2.01 4.67 1.02 4.34 0 4 C0 2.68 0 1.36 0 0 Z " fill="#6D8BA1" transform="translate(221,405)"/>
<path d="M0 0 C0.66 0 1.32 0 2 0 C2.33 0.99 2.66 1.98 3 3 C2.01 3 1.02 3 0 3 C-0.28875 3.763125 -0.5775 4.52625 -0.875 5.3125 C-2 8 -2 8 -4 11 C-4.66 11 -5.32 11 -6 11 C-4.54997977 6.89160936 -2.6020866 3.49655387 0 0 Z " fill="#4D4D4D" transform="translate(362,301)"/>
<path d="M0 0 C0.33 0 0.66 0 1 0 C1 3.96 1 7.92 1 12 C1.66 12 2.32 12 3 12 C3 12.66 3 13.32 3 14 C1.68 13.67 0.36 13.34 -1 13 C-1.66 10.69 -2.32 8.38 -3 6 C-2.34 6 -1.68 6 -1 6 C-0.67 4.02 -0.34 2.04 0 0 Z " fill="#525252" transform="translate(364,270)"/>
<path d="M0 0 C0.33 0 0.66 0 1 0 C1 3.3 1 6.6 1 10 C0.01 10.33 -0.98 10.66 -2 11 C-2 10.34 -2 9.68 -2 9 C-2.66 8.67 -3.32 8.34 -4 8 C-2.68 5.36 -1.36 2.72 0 0 Z " fill="#6788A0" transform="translate(367,411)"/>
<path d="M0 0 C0.99 0.33 1.98 0.66 3 1 C3 1.66 3 2.32 3 3 C3.66 3.66 4.32 4.32 5 5 C1.52674819 6.1577506 -1.36067448 6.06866652 -5 6 C-3.74821404 3.49642808 -2.00018842 1.93566621 0 0 Z " fill="#7393AB" transform="translate(318,369)"/>
<path d="M0 0 C-1.5 2 -1.5 2 -4 4 C-6.75871627 4.35800135 -9.20097524 4.18660165 -12 4 C-8.66437635 0.13769893 -4.98576775 -1.84658065 0 0 Z " fill="#7C97AC" transform="translate(316,331)"/>
<path d="M0 0 C0.66 0.99 1.32 1.98 2 3 C0.68 5.31 -0.64 7.62 -2 10 C-2.66 10 -3.32 10 -4 10 C-4 9.34 -4 8.68 -4 8 C-4.66 7.67 -5.32 7.34 -6 7 C-6.33 6.34 -6.66 5.68 -7 5 C-5.824375 4.87625 -5.824375 4.87625 -4.625 4.75 C-1.85250896 4.27193661 -1.85250896 4.27193661 -0.6875 1.9375 C-0.460625 1.298125 -0.23375 0.65875 0 0 Z " fill="#6C6C6C" transform="translate(427,278)"/>
<path d="M0 0 C0.33 0.66 0.66 1.32 1 2 C-2.50776784 3.60355101 -5.14354879 4.22036864 -9 4 C-9 3.01 -9 2.02 -9 1 C-2.25 -1.125 -2.25 -1.125 0 0 Z " fill="#565656" transform="translate(329,255)"/>
<path d="M0 0 C1.32 0 2.64 0 4 0 C3.45276317 3.37462715 2.9451 5.08235 1 8 C0.34 8 -0.32 8 -1 8 C-0.67 5.36 -0.34 2.72 0 0 Z " fill="#DEDEDE" transform="translate(400,237)"/>
<path d="M0 0 C1.98738098 0.01761863 3.97253109 0.16698176 5.953125 0.33203125 C5.953125 0.99203125 5.953125 1.65203125 5.953125 2.33203125 C1.97251723 3.50279824 -1.96309217 4.58952528 -6.046875 5.33203125 C-3.15469741 0.51173527 -3.15469741 0.51173527 0 0 Z " fill="#5A5A5A" transform="translate(330.046875,230.66796875)"/>
<path d="M0 0 C0.66 0 1.32 0 2 0 C3.32 2.31 4.64 4.62 6 7 C5.01 7.33 4.02 7.66 3 8 C0.77810176 5.77810176 0.07401108 3.91517292 -1 1 C-0.67 0.67 -0.34 0.34 0 0 Z " fill="#668298" transform="translate(211,312)"/>
<path d="M0 0 C0.99 0 1.98 0 3 0 C3.33 0.99 3.66 1.98 4 3 C6.00016466 4.20882096 6.00016466 4.20882096 8 5 C6.35 5.66 4.7 6.32 3 7 C1.5 5.75 1.5 5.75 0 4 C0 2.68 0 1.36 0 0 Z " fill="#646464" transform="translate(343,294)"/>
<path d="M0 0 C0.33 0 0.66 0 1 0 C1 2.64 1 5.28 1 8 C-0.65 8 -2.3 8 -4 8 C-2.25 2.25 -2.25 2.25 0 0 Z " fill="#EFEFEF" transform="translate(334,294)"/>
<path d="M0 0 C0.66 0 1.32 0 2 0 C1.67 2.64 1.34 5.28 1 8 C3.97 8 6.94 8 10 8 C10 8.33 10 8.66 10 9 C6.7 9 3.4 9 0 9 C-1.125 6.1875 -1.125 6.1875 -2 3 C-1.34 2.01 -0.68 1.02 0 0 Z " fill="#888888" transform="translate(381,292)"/>
<path d="M0 0 C4.20626034 1.50223584 5.73900021 4.28550034 8 8 C7.67 8.66 7.34 9.32 7 10 C6.13375 8.7934375 6.13375 8.7934375 5.25 7.5625 C3.01873107 5.02133261 2.25543229 4.34879632 -1 4 C-0.67 2.68 -0.34 1.36 0 0 Z " fill="#7C95A7" transform="translate(353,361)"/>
<path d="M0 0 C0.33 0.66 0.66 1.32 1 2 C-0.98 4.97 -2.96 7.94 -5 11 C-6 8 -6 8 -5.29296875 6.2109375 C-4.74576172 5.30214844 -4.74576172 5.30214844 -4.1875 4.375 C-3.83042969 3.76398438 -3.47335937 3.15296875 -3.10546875 2.5234375 C-2 1 -2 1 0 0 Z " fill="#525252" transform="translate(466,276)"/>
<path d="M0 0 C0.99 0 1.98 0 3 0 C2.49691315 3.72284268 1.88896023 5.57327341 -1 8 C-1.66 8.66 -2.32 9.32 -3 10 C-3.36265043 5.76907828 -2.60250805 3.37362154 0 0 Z " fill="#4F4F4F" transform="translate(435,265)"/>
<path d="M0 0 C0.66 0 1.32 0 2 0 C2.6875 2.3125 2.6875 2.3125 3 5 C1.5625 6.8125 1.5625 6.8125 0 8 C-1.32 7.34 -2.64 6.68 -4 6 C-3.01 5.67 -2.02 5.34 -1 5 C-0.67 3.35 -0.34 1.7 0 0 Z " fill="#666666" transform="translate(334,262)"/>
<path d="M0 0 C1.32 0.33 2.64 0.66 4 1 C3.6875 3.375 3.6875 3.375 3 6 C2.01 6.66 1.02 7.32 0 8 C0 5.36 0 2.72 0 0 Z " fill="#E4E4E4" transform="translate(398,247)"/>
<path d="M0 0 C2.97 0 5.94 0 9 0 C9.66 1.32 10.32 2.64 11 4 C5.06 3.01 5.06 3.01 -1 2 C-0.67 1.34 -0.34 0.68 0 0 Z " fill="#5E7E96" transform="translate(199,246)"/>
<path d="M0 0 C0.98484375 0.01804688 1.9696875 0.03609375 2.984375 0.0546875 C4.10585937 0.08949219 4.10585937 0.08949219 5.25 0.125 C5.25 0.455 5.25 0.785 5.25 1.125 C-0.32432514 2.78751802 -4.0567505 3.31109365 -9.75 2.125 C-6.40060119 0.09941119 -3.88037449 -0.09238987 0 0 Z " fill="#65879E" transform="translate(221.75,227.875)"/>
<path d="M0 0 C0.66 0 1.32 0 2 0 C2.36923077 5.53846154 2.36923077 5.53846154 0.5 7.875 C-0.2425 8.431875 -0.2425 8.431875 -1 9 C-1.66 8.01 -2.32 7.02 -3 6 C-2.34 6 -1.68 6 -1 6 C-0.67 4.02 -0.34 2.04 0 0 Z " fill="#5E7C94" transform="translate(379,403)"/>
<path d="M0 0 C2.475 0.495 2.475 0.495 5 1 C5.33 3.97 5.66 6.94 6 10 C3.25722422 6.80009492 1.3697164 3.99500618 0 0 Z " fill="#658297" transform="translate(199,392)"/>
<path d="M0 0 C0.33 0.99 0.66 1.98 1 3 C2.32 3 3.64 3 5 3 C4.67 5.31 4.34 7.62 4 10 C-0.60921053 4.64736842 -0.60921053 4.64736842 -1 1 C-0.67 0.67 -0.34 0.34 0 0 Z " fill="#5D7D95" transform="translate(192,376)"/>
<path d="M0 0 C0 0.66 0 1.32 0 2 C1.32 2.33 2.64 2.66 4 3 C3.67 3.66 3.34 4.32 3 5 C-0.3 4.01 -3.6 3.02 -7 2 C-3 0 -3 0 0 0 Z " fill="#708BA0" transform="translate(327,347)"/>
<path d="M0 0 C0.99 0 1.98 0 3 0 C2.7834375 1.051875 2.7834375 1.051875 2.5625 2.125 C1.98521625 5.07556141 1.48304859 8.03270151 1 11 C-1.78637633 6.8204355 -0.79562512 4.85331323 0 0 Z " fill="#5F5F5F" transform="translate(393,292)"/>
<path d="M0 0 C0.33 0 0.66 0 1 0 C1 2.64 1 5.28 1 8 C1.99 7.67 2.98 7.34 4 7 C3.67 7.99 3.34 8.98 3 10 C1.68 10 0.36 10 -1 10 C-1.125 2.25 -1.125 2.25 0 0 Z " fill="#363636" transform="translate(383,278)"/>
<path d="M0 0 C1.10844919 3.32534757 0.84454356 5.62182575 0 9 C-0.66 8.01 -1.32 7.02 -2 6 C-2.66 6.66 -3.32 7.32 -4 8 C-4 4 -4 4 -2 1.75 C-1.01 0.88375 -1.01 0.88375 0 0 Z " fill="#DFDFDF" transform="translate(373,277)"/>
<path d="M0 0 C-0.33 2.64 -0.66 5.28 -1 8 C-1.99 8 -2.98 8 -4 8 C-4.1875 5.125 -4.1875 5.125 -4 2 C-1 0 -1 0 0 0 Z " fill="#66849A" transform="translate(220,325)"/>
<path d="M0 0 C0.33 0.99 0.66 1.98 1 3 C3.64 2.67 6.28 2.34 9 2 C7.9375 3.5625 7.9375 3.5625 6 5 C2.3125 4.6875 2.3125 4.6875 -1 4 C-0.67 2.68 -0.34 1.36 0 0 Z " fill="#3F3F3F" transform="translate(413,282)"/>
<path d="M0 0 C2 2 2 2 2.125 5.625 C2.08375 6.73875 2.0425 7.8525 2 9 C2.99 9.33 3.98 9.66 5 10 C3.68 10 2.36 10 1 10 C0.34 9.34 -0.32 8.68 -1 8 C-0.96712417 5.27130593 -0.43602229 2.7033382 0 0 Z " fill="#5F5F5F" transform="translate(413,275)"/>
<path d="M0 0 C1.32 0 2.64 0 4 0 C3.125 4.75 3.125 4.75 2 7 C1.34 7 0.68 7 0 7 C0 4.69 0 2.38 0 0 Z " fill="#EBEBEB" transform="translate(385,278)"/>
<path d="M0 0 C0.66 0 1.32 0 2 0 C2.33 0.99 2.66 1.98 3 3 C3.99 3.33 4.98 3.66 6 4 C5.67 4.66 5.34 5.32 5 6 C0.25 6.125 0.25 6.125 -2 5 C-1.34 3.35 -0.68 1.7 0 0 Z " fill="#747474" transform="translate(387,261)"/>
<path d="M0 0 C0.66 0 1.32 0 2 0 C2 3.63 2 7.26 2 11 C1.34 11 0.68 11 0 11 C-1.28571429 3.57142857 -1.28571429 3.57142857 0 0 Z " fill="#3F3F3F" transform="translate(420,234)"/>
<path d="M0 0 C-4.86051596 2.59227518 -9.65271133 2.18689553 -15 2 C-15 1.67 -15 1.34 -15 1 C-13.25215171 0.63536268 -11.50159498 0.2836922 -9.75 -0.0625 C-8.28820312 -0.35833984 -8.28820312 -0.35833984 -6.796875 -0.66015625 C-4.131881 -0.98397535 -2.51128277 -0.85503199 0 0 Z " fill="#D6E7F2" transform="translate(311,451)"/>
<path d="M0 0 C1.9375 0.8125 1.9375 0.8125 4 2 C4.33 2.99 4.66 3.98 5 5 C5.99 5 6.98 5 8 5 C8 5.99 8 6.98 8 8 C4.63820226 6.55922954 2.40843732 4.75249979 0 2 C0 1.34 0 0.68 0 0 Z " fill="#698296" transform="translate(216,416)"/>
<path d="M0 0 C0.66 0.33 1.32 0.66 2 1 C2 1.99 2 2.98 2 4 C1.34 4 0.68 4 0 4 C-0.33 6.64 -0.66 9.28 -1 12 C-1.33 12 -1.66 12 -2 12 C-2 8.37 -2 4.74 -2 1 C-1.34 0.67 -0.68 0.34 0 0 Z " fill="#E2F0F6" transform="translate(219,384)"/>
<path d="M0 0 C0.33 0 0.66 0 1 0 C1.33 4.29 1.66 8.58 2 13 C0.02 13.99 0.02 13.99 -2 15 C-1.34 10.05 -0.68 5.1 0 0 Z " fill="#819DB2" transform="translate(337,360)"/>
<path d="M0 0 C1.65 0 3.3 0 5 0 C5 0.99 5 1.98 5 3 C4.21625 3.103125 3.4325 3.20625 2.625 3.3125 C-0.33045181 3.77595022 -0.33045181 3.77595022 -2 7 C-1.125 2.25 -1.125 2.25 0 0 Z " fill="#D2E5EE" transform="translate(178,318)"/>
<path d="M0 0 C0.33 0 0.66 0 1 0 C0.67 3.63 0.34 7.26 0 11 C-0.66 11 -1.32 11 -2 11 C-2 8.36 -2 5.72 -2 3 C-1.34 3 -0.68 3 0 3 C0 2.01 0 1.02 0 0 Z " fill="#4F4F4F" transform="translate(480,279)"/>
<path d="M0 0 C0.66 0 1.32 0 2 0 C1.50769231 5.53846154 1.50769231 5.53846154 -1.0625 7.875 C-2.0215625 8.431875 -2.0215625 8.431875 -3 9 C-2.44271087 5.65626525 -1.64826111 2.96687001 0 0 Z " fill="#4E4E4E" transform="translate(390,278)"/>
<path d="M0 0 C0.99 0 1.98 0 3 0 C3.66 2.31 4.32 4.62 5 7 C4.01 7 3.02 7 2 7 C0 4 0 4 0 0 Z " fill="#656565" transform="translate(442,279)"/>
<path d="M0 0 C0.66 0.99 1.32 1.98 2 3 C0.35 5.31 -1.3 7.62 -3 10 C-4 7 -4 7 -3.22265625 5.17578125 C-2.1484375 3.45052083 -1.07421875 1.72526042 0 0 Z " fill="#5C5C5C" transform="translate(411,247)"/>
<path d="M0 0 C0.66 0 1.32 0 2 0 C1.6875 2.875 1.6875 2.875 1 6 C0.01 6.66 -0.98 7.32 -2 8 C-1.125 1.125 -1.125 1.125 0 0 Z " fill="#E1EFF6" transform="translate(349,394)"/>
<path d="M0 0 C0.33 0 0.66 0 1 0 C1.66 4.29 2.32 8.58 3 13 C2.01 13.495 2.01 13.495 1 14 C-0.38226016 11.23547967 -0.09525387 8.9538637 -0.0625 5.875 C-0.05347656 4.77929688 -0.04445312 3.68359375 -0.03515625 2.5546875 C-0.02355469 1.71164062 -0.01195312 0.86859375 0 0 Z " fill="#607F97" transform="translate(215,386)"/>
<path d="M0 0 C3 3 3 3 3.1875 6.1875 C3.0946875 7.5796875 3.0946875 7.5796875 3 9 C2.01 9 1.02 9 0 9 C0 6.03 0 3.06 0 0 Z " fill="#6D889B" transform="translate(299,323)"/>
<path d="M0 0 C2 2 2 2 2.4375 4.3125 C3.07571225 7.36173632 4.29985729 9.41282632 6 12 C5.34 12 4.68 12 4 12 C3.67 11.34 3.34 10.68 3 10 C2.01 9.67 1.02 9.34 0 9 C0 6.03 0 3.06 0 0 Z " fill="#6A88A0" transform="translate(291,308)"/>
<path d="M0 0 C1.485 0.99 1.485 0.99 3 2 C3.66 2.33 4.32 2.66 5 3 C4.34 4.65 3.68 6.3 3 8 C1.68 7.01 0.36 6.02 -1 5 C-0.67 3.35 -0.34 1.7 0 0 Z " fill="#6989A0" transform="translate(180,256)"/>
<path d="M0 0 C0.66 0 1.32 0 2 0 C2.05447047 1.41623216 2.09300508 2.83308191 2.125 4.25 C2.14820313 5.03890625 2.17140625 5.8278125 2.1953125 6.640625 C1.9828378 9.20731941 1.28654105 10.7916067 0 13 C0.33 10.36 0.66 7.72 1 5 C0.34 5 -0.32 5 -1 5 C-0.67 3.35 -0.34 1.7 0 0 Z " fill="#373737" transform="translate(389,234)"/>
<path d="M0 0 C0.33 0.99 0.66 1.98 1 3 C3.00016466 4.20882096 3.00016466 4.20882096 5 5 C3.625 6.5 3.625 6.5 2 8 C1.34 8 0.68 8 0 8 C0 5.36 0 2.72 0 0 Z " fill="#DCEFF8" transform="translate(339,400)"/>
<path d="M0 0 C0.66 0 1.32 0 2 0 C1.44271087 3.34373475 0.64826111 6.03312999 -1 9 C-0.34 9.33 0.32 9.66 1 10 C0.01 10 -0.98 10 -2 10 C-2 7.36 -2 4.72 -2 2 C-1.34 1.67 -0.68 1.34 0 1 C0 0.67 0 0.34 0 0 Z " fill="#698CA7" transform="translate(291,339)"/>
<path d="M0 0 C3.41158256 1.13719419 4.11854601 2.04342944 6 5 C6 5.66 6 6.32 6 7 C5.01 7 4.02 7 3 7 C0.64276511 4.46815512 0 3.52809907 0 0 Z " fill="#5F5F5F" transform="translate(489,280)"/>
<path d="M0 0 C0.99 0 1.98 0 3 0 C2.67 2.31 2.34 4.62 2 7 C0.68 6.67 -0.64 6.34 -2 6 C-2.33 4.68 -2.66 3.36 -3 2 C-1.68 2.33 -0.36 2.66 1 3 C0.67 2.01 0.34 1.02 0 0 Z " fill="#7492AC" transform="translate(236,272)"/>
<path d="M0 0 C0 3 0 3 -2 6 C-4.125 6.6875 -4.125 6.6875 -6 7 C-4.6875 4.0625 -4.6875 4.0625 -3 1 C-2.01 0.67 -1.02 0.34 0 0 Z " fill="#353535" transform="translate(378,269)"/>
<path d="M0 0 C1.32 0.66 2.64 1.32 4 2 C3.67 3.98 3.34 5.96 3 8 C2.01 7.01 1.02 6.02 0 5 C0.33 4.01 0.66 3.02 1 2 C0.34 1.67 -0.32 1.34 -1 1 C-0.67 0.67 -0.34 0.34 0 0 Z " fill="#66869B" transform="translate(210,264)"/>
<path d="M0 0 C0.66 1.32 1.32 2.64 2 4 C1.67 4.99 1.34 5.98 1 7 C0.34 7 -0.32 7 -1 7 C-1 7.66 -1 8.32 -1 9 C-1.66 9 -2.32 9 -3 9 C-2.01 6.03 -1.02 3.06 0 0 Z " fill="#DDEFF6" transform="translate(185,257)"/>
<path d="M0 0 C0.33 0.66 0.66 1.32 1 2 C4.3 1.34 7.6 0.68 11 0 C10.34 1.65 9.68 3.3 9 5 C8.34 5 7.68 5 7 5 C7 4.34 7 3.68 7 3 C4.69 3 2.38 3 0 3 C0 2.01 0 1.02 0 0 Z " fill="#CDCDCD" transform="translate(319,257)"/>
<path d="M0 0 C1.32 0.33 2.64 0.66 4 1 C4 1.99 4 2.98 4 4 C1.125 4.125 1.125 4.125 -2 4 C-2.66 3.34 -3.32 2.68 -4 2 C-3.01 1.67 -2.02 1.34 -1 1 C-1 1.66 -1 2.32 -1 3 C-0.34 2.67 0.32 2.34 1 2 C0.67 1.34 0.34 0.68 0 0 Z " fill="#5483A7" transform="translate(252,430)"/>
<path d="M0 0 C-0.33 1.32 -0.66 2.64 -1 4 C-3.4375 3.625 -3.4375 3.625 -6 3 C-6.33 2.34 -6.66 1.68 -7 1 C-4.53721199 -0.231394 -2.7204945 -0.07159196 0 0 Z " fill="#6889A1" transform="translate(238,428)"/>
<path d="M0 0 C0.99 0.33 1.98 0.66 3 1 C3 2.65 3 4.3 3 6 C1.68 5.67 0.36 5.34 -1 5 C-0.67 3.35 -0.34 1.7 0 0 Z " fill="#537EA1" transform="translate(321,359)"/>
<path d="M0 0 C0.33 0 0.66 0 1 0 C0.67 2.97 0.34 5.94 0 9 C-0.66 9 -1.32 9 -2 9 C-2 6.69 -2 4.38 -2 2 C-1.34 2 -0.68 2 0 2 C0 1.34 0 0.68 0 0 Z " fill="#444444" transform="translate(350,307)"/>
<path d="M0 0 C0.66 0 1.32 0 2 0 C2.66 2.31 3.32 4.62 4 7 C2.68 6.67 1.36 6.34 0 6 C0 4.02 0 2.04 0 0 Z " fill="#668396" transform="translate(180,273)"/>
<path d="M0 0 C1 3 1 3 0.0625 5.1875 C-0.4634375 6.0846875 -0.4634375 6.0846875 -1 7 C-1.99 7 -2.98 7 -4 7 C-4 5.68 -4 4.36 -4 3 C-2.68 2.67 -1.36 2.34 0 2 C0 1.34 0 0.68 0 0 Z " fill="#E5E5E5" transform="translate(383,269)"/>
<path d="M0 0 C0.66 0 1.32 0 2 0 C2 1.98 2 3.96 2 6 C0.68 6 -0.64 6 -2 6 C-1.125 1.125 -1.125 1.125 0 0 Z " fill="#393939" transform="translate(484,268)"/>
<path d="M0 0 C0.66 0 1.32 0 2 0 C1.67 2.64 1.34 5.28 1 8 C0.01 7.34 -0.98 6.68 -2 6 C-1.34 4.02 -0.68 2.04 0 0 Z " fill="#6D6D6D" transform="translate(418,262)"/>
<path d="M0 0 C0.66 0 1.32 0 2 0 C2 1.98 2 3.96 2 6 C0.68 6 -0.64 6 -2 6 C-1.34 4.02 -0.68 2.04 0 0 Z " fill="#C4C4C4" transform="translate(387,240)"/>
<path d="M0 0 C2.60334924 2.71182212 2.99456691 3.89133813 3.1875 7.75 C3.0946875 9.35875 3.0946875 9.35875 3 11 C1.5 10 1.5 10 0 8 C-0.27345479 5.28153765 -0.13491285 2.74322801 0 0 Z " fill="#7A93A6" transform="translate(349,376)"/>
<path d="M0 0 C2.4375 0.1875 2.4375 0.1875 5 1 C6.3125 3.0625 6.3125 3.0625 7 5 C5.68 4.67 4.36 4.34 3 4 C3 3.34 3 2.68 3 2 C1.68 1.67 0.36 1.34 -1 1 C-0.67 0.67 -0.34 0.34 0 0 Z " fill="#CDE0EB" transform="translate(353,345)"/>
<path d="M0 0 C0.99 0 1.98 0 3 0 C2.67 1.98 2.34 3.96 2 6 C1.01 6 0.02 6 -1 6 C-0.67 4.02 -0.34 2.04 0 0 Z " fill="#777777" transform="translate(389,308)"/>
<path d="M0 0 C0.66 0 1.32 0 2 0 C2 1.98 2 3.96 2 6 C0.68 6 -0.64 6 -2 6 C-1.34 4.02 -0.68 2.04 0 0 Z " fill="#CDCDCD" transform="translate(367,296)"/>
<path d="M0 0 C0.33 0 0.66 0 1 0 C1.33 4.29 1.66 8.58 2 13 C1.01 12.34 0.02 11.68 -1 11 C-0.67 7.37 -0.34 3.74 0 0 Z " fill="#829BAE" transform="translate(265,283)"/>
<path d="M0 0 C4.875 4.625 4.875 4.625 6 8 C4.68 7.67 3.36 7.34 2 7 C1.34 4.69 0.68 2.38 0 0 Z " fill="#7A92A5" transform="translate(238,280)"/>
<path d="M0 0 C0.66 0.99 1.32 1.98 2 3 C1.125 6.6875 1.125 6.6875 0 10 C-1.58538318 7.48203847 -2.0373656 6.32134414 -1.6875 3.3125 C-1 1 -1 1 0 0 Z " fill="#636363" transform="translate(403,241)"/>
<path d="M0 0 C0.99 0.33 1.98 0.66 3 1 C3 1.66 3 2.32 3 3 C4.32 3.33 5.64 3.66 7 4 C5 5 5 5 3.0546875 4.44140625 C2.33539063 4.15136719 1.61609375 3.86132812 0.875 3.5625 C0.15054687 3.27503906 -0.57390625 2.98757813 -1.3203125 2.69140625 C-2.15175781 2.34916016 -2.15175781 2.34916016 -3 2 C-2.01 1.34 -1.02 0.68 0 0 Z " fill="#CEE0E9" transform="translate(260,427)"/>
<path d="M0 0 C0.99 0.33 1.98 0.66 3 1 C1.02 3.97 1.02 3.97 -1 7 C-1.625 5.1875 -1.625 5.1875 -2 3 C-1.34 2.01 -0.68 1.02 0 0 Z " fill="#E4F0F5" transform="translate(226,336)"/>
<path d="M0 0 C1.32 0 2.64 0 4 0 C4 1.65 4 3.3 4 5 C3.67 4.01 3.34 3.02 3 2 C2.34 2 1.68 2 1 2 C0.67 2.99 0.34 3.98 0 5 C-0.5625 3.0625 -0.5625 3.0625 -1 1 C-0.67 0.67 -0.34 0.34 0 0 Z " fill="#535353" transform="translate(366,294)"/>
<path d="M0 0 C1.485 0.99 1.485 0.99 3 2 C2.67 3.65 2.34 5.3 2 7 C1.01 6.67 0.02 6.34 -1 6 C-0.67 4.02 -0.34 2.04 0 0 Z " fill="#757575" transform="translate(356,249)"/>
<path d="M0 0 C0.33 0 0.66 0 1 0 C1 1.98 1 3.96 1 6 C-0.32 6 -1.64 6 -3 6 C-1.125 1.125 -1.125 1.125 0 0 Z " fill="#CFCFCF" transform="translate(348,240)"/>
</svg>
